<svg width="1000" height="1000" viewBox="0 0 1000 1000" version="1.1" xmlns="http://www.w3.org/2000/svg" xmlns:xlink="http://www.w3.org/1999/xlink" xmlns:figma="http://www.figma.com/figma/ns">
<title>u1F78A-WHITE CIRCLE CONTAINING BLACK SMALL CIRCLE</title>
<desc>Created using Figma</desc>
<g id="Canvas" transform="matrix(83.3333 0 0 83.3333 -14000 -17500)" figma:type="canvas">
<g id="u1F78A-WHITE CIRCLE CONTAINING BLACK SMALL CIRCLE" style="mix-blend-mode:normal;" figma:type="frame">
<path d="M 168 210L 180 210L 180 222L 168 222L 168 210Z" fill="#FFFFFF"/>
<g id="Union" style="mix-blend-mode:normal;" figma:type="vector-operation">
<use xlink:href="#path0_fill" transform="translate(168 210)" style="mix-blend-mode:normal;"/>
</g>
</g>
</g>
<defs>
<path id="path0_fill" fill-rule="evenodd" d="M 12 6C 12 9.31371 9.31371 12 6 12C 2.68629 12 0 9.31371 0 6C 0 2.68629 2.68629 0 6 0C 9.31371 0 12 2.68629 12 6ZM 11 6C 11 8.76143 8.76143 11 6 11C 3.23857 11 1 8.76143 1 6C 1 3.23857 3.23857 1 6 1C 8.76143 1 11 3.23857 11 6ZM 6 9C 7.65686 9 9 7.65686 9 6C 9 4.34314 7.65686 3 6 3C 4.34314 3 3 4.34314 3 6C 3 7.65686 4.34314 9 6 9Z"/>
</defs>
</svg>
