<svg width="1001" height="1001" viewBox="0 0 1001 1001" version="1.1" xmlns="http://www.w3.org/2000/svg" xmlns:xlink="http://www.w3.org/1999/xlink">
<title>u1F796-SQUARE TARGET</title>
<desc>Created using Figma</desc>
<g id="Canvas" transform="matrix(83.3333 0 0 83.3333 -19500 416.667)">
<g id="u1F796-SQUARE TARGET">
<path d="M 234 -5L 246 -5L 246 7L 234 7L 234 -5Z" fill="#FFFFFF"/>
<g id="Union">
<use xlink:href="#path0_fill" transform="translate(234 -5)"/>
</g>
</g>
</g>
<defs>
<path id="path0_fill" fill-rule="evenodd" d="M 12 0L 0 0L 0 12L 12 12L 12 0ZM 11 1L 1 1L 1 11L 11 11L 11 1ZM 10 2L 2 2L 2 10L 10 10L 10 2ZM 9 3L 3 3L 3 9L 9 9L 9 3ZM 8 4L 4 4L 4 8L 8 8L 8 4Z"/>
</defs>
</svg>
