<svg width="1000" height="1000" viewBox="0 0 1000 1000" version="1.1" xmlns="http://www.w3.org/2000/svg" xmlns:xlink="http://www.w3.org/1999/xlink" xmlns:figma="http://www.figma.com/figma/ns">
<title>u1F789-EXTREMELY HEAVY WHITE CIRCLE</title>
<desc>Created using Figma</desc>
<g id="Canvas" transform="matrix(83.3333 0 0 83.3333 -14000 -16416.7)" figma:type="canvas">
<g id="u1F789-EXTREMELY HEAVY WHITE CIRCLE" style="mix-blend-mode:normal;" figma:type="frame">
<path d="M 168 197L 180 197L 180 209L 168 209L 168 197Z" fill="#FFFFFF"/>
<g id="Subtract" style="mix-blend-mode:normal;" figma:type="vector-operation">
<use xlink:href="#path0_fill" transform="translate(168 197)" style="mix-blend-mode:normal;"/>
</g>
</g>
</g>
<defs>
<path id="path0_fill" fill-rule="evenodd" d="M 6 12C 9.31371 12 12 9.31371 12 6C 12 2.68629 9.31371 0 6 0C 2.68629 0 0 2.68629 0 6C 0 9.31371 2.68629 12 6 12ZM 6 6.5C 6.27614 6.5 6.5 6.27614 6.5 6C 6.5 5.72386 6.27614 5.5 6 5.5C 5.72386 5.5 5.5 5.72386 5.5 6C 5.5 6.27614 5.72386 6.5 6 6.5Z"/>
</defs>
</svg>
