<svg width="1001" height="1001" viewBox="0 0 1001 1001" version="1.1" xmlns="http://www.w3.org/2000/svg" xmlns:xlink="http://www.w3.org/1999/xlink">
<title>u1F786-BOLD WHITE CIRCLE</title>
<desc>Created using Figma</desc>
<g id="Canvas" transform="matrix(83.3333 0 0 83.3333 -14000 -13166.7)">
<g id="u1F786-BOLD WHITE CIRCLE">
<path d="M 168 158L 180 158L 180 170L 168 170L 168 158Z" fill="#FFFFFF"/>
<g id="Subtract">
<use xlink:href="#path0_fill" transform="translate(168 158)"/>
</g>
</g>
</g>
<defs>
<path id="path0_fill" fill-rule="evenodd" d="M 6 12C 9.31371 12 12 9.31371 12 6C 12 2.68629 9.31371 0 6 0C 2.68629 0 0 2.68629 0 6C 0 9.31371 2.68629 12 6 12ZM 6 9C 7.65686 9 9 7.65686 9 6C 9 4.34314 7.65686 3 6 3C 4.34314 3 3 4.34314 3 6C 3 7.65686 4.34314 9 6 9Z"/>
</defs>
</svg>
