<svg width="1084" height="1001" viewBox="0 0 1084 1001" version="1.1" xmlns="http://www.w3.org/2000/svg" xmlns:xlink="http://www.w3.org/1999/xlink">
<title>u1F78B-ROUND TARGET</title>
<desc>Created using Figma</desc>
<g id="Canvas" transform="matrix(83.3333 0 0 83.3333 -15083.3 -17500)">
<g id="u1F78B-ROUND TARGET">
<path d="M 181.75 210L 193.75 210L 193.75 222L 181.75 222L 181.75 210Z" fill="#FFFFFF"/>
<g id="Subtract">
<use xlink:href="#path0_fill" transform="translate(181.75 210)"/>
</g>
</g>
</g>
<defs>
<path id="path0_fill" fill-rule="evenodd" d="M 6 12C 9.31371 12 12 9.31371 12 6C 12 2.68629 9.31371 0 6 0C 2.68629 0 0 2.68629 0 6C 0 9.31371 2.68629 12 6 12ZM 6 11C 8.76143 11 11 8.76143 11 6C 11 3.23857 8.76143 1 6 1C 3.23857 1 1 3.23857 1 6C 1 8.76143 3.23857 11 6 11ZM 10 6C 10 8.20914 8.20914 10 6 10C 3.79086 10 2 8.20914 2 6C 2 3.79086 3.79086 2 6 2C 8.20914 2 10 3.79086 10 6ZM 6 9C 7.65686 9 9 7.65686 9 6C 9 4.34314 7.65686 3 6 3C 4.34314 3 3 4.34314 3 6C 3 7.65686 4.34314 9 6 9ZM 8 6C 8 7.10457 7.10457 8 6 8C 4.89543 8 4 7.10457 4 6C 4 4.89543 4.89543 4 6 4C 7.10457 4 8 4.89543 8 6ZM 6 7C 6.55229 7 7 6.55229 7 6C 7 5.44771 6.55229 5 6 5C 5.44771 5 5 5.44771 5 6C 5 6.55229 5.44771 7 6 7Z"/>
</defs>
</svg>
