<svg width="1001" height="1001" viewBox="0 0 1001 1001" version="1.1" xmlns="http://www.w3.org/2000/svg" xmlns:xlink="http://www.w3.org/1999/xlink">
<title>u2295-CIRCLED PLUS</title>
<desc>Created using Figma</desc>
<g id="Canvas" transform="matrix(83.3333 0 0 83.3333 -16250 -20833.3)">
<g id="u2295-CIRCLED PLUS">
<path d="M 195 250L 207 250L 207 262L 195 262L 195 250Z" fill="#FFFFFF"/>
<g id="Union">
<use xlink:href="#path0_fill" transform="translate(195 250)"/>
</g>
<g id="Intersect">
<use xlink:href="#path1_fill" transform="matrix(0.707107 0.707107 -0.707107 0.707107 201 251.531)"/>
</g>
</g>
</g>
<defs>
<path id="path0_fill" fill-rule="evenodd" d="M 6 12C 9.31372 12 12 9.31371 12 6C 12 2.68629 9.31372 0 6 0C 2.68628 0 0 2.68629 0 6C 0 9.31371 2.68628 12 6 12ZM 6 11C 8.76141 11 11 8.76143 11 6C 11 3.23857 8.76141 1 6 1C 3.23859 1 1 3.23857 1 6C 1 8.76143 3.23859 11 6 11Z"/>
<path id="path1_fill" fill-rule="evenodd" d="M 6.31989 0.707104L 3.86703 3.15993L 6.31985 5.61274C 6.11453 5.87686 5.87686 6.11455 5.61273 6.31986L 3.15994 3.86703L 0.707123 6.31984C 0.443024 6.11454 0.205322 5.87685 3.05176e-05 5.61274L 2.45285 3.15993L 0 0.707104C 0.205292 0.442993 0.442993 0.205307 0.707092 0L 3.15994 2.45283L 5.61279 0C 5.87689 0.205307 6.11459 0.442993 6.31989 0.707104Z"/>
</defs>
</svg>
