<svg width="1001" height="1001" viewBox="0 0 1001 1001" version="1.1" xmlns="http://www.w3.org/2000/svg" xmlns:xlink="http://www.w3.org/1999/xlink">
<title>u2296-CIRCLED MINUS</title>
<desc>Created using Figma</desc>
<g id="Canvas" transform="matrix(83.3333 0 0 83.3333 -17333.3 -20833.3)">
<g id="u2296-CIRCLED MINUS">
<path d="M 208 250L 220 250L 220 262L 208 262L 208 250Z" fill="#FFFFFF"/>
<g id="Union">
<use xlink:href="#path0_fill" transform="translate(208 250)"/>
</g>
<g id="Intersect">
<use xlink:href="#path1_fill" transform="matrix(0.707107 0.707107 -0.707107 0.707107 214 251.531)"/>
</g>
</g>
</g>
<defs>
<path id="path0_fill" fill-rule="evenodd" d="M 6 12C 9.31372 12 12 9.31371 12 6C 12 2.68629 9.31372 0 6 0C 2.68628 0 0 2.68629 0 6C 0 9.31371 2.68628 12 6 12ZM 6 11C 8.76141 11 11 8.76143 11 6C 11 3.23857 8.76141 1 6 1C 3.23859 1 1 3.23857 1 6C 1 8.76143 3.23859 11 6 11Z"/>
<path id="path1_fill" fill-rule="evenodd" d="M 6.31986 0.707107L 0.707107 6.31986C 0.442994 6.11455 0.20531 5.87686 0 5.61275L 5.61275 0C 5.87686 0.20531 6.11455 0.442994 6.31986 0.707107Z"/>
</defs>
</svg>
