<svg width="1001" height="1001" viewBox="0 0 1001 1001" version="1.1" xmlns="http://www.w3.org/2000/svg" xmlns:xlink="http://www.w3.org/1999/xlink">
<title>u2297-CIRCLED TIMES</title>
<desc>Created using Figma</desc>
<g id="Canvas" transform="matrix(83.3333 0 0 83.3333 -16250 -19750)">
<g id="u2297-CIRCLED TIMES">
<path d="M 195 237L 207 237L 207 249L 195 249L 195 237Z" fill="#FFFFFF"/>
<g id="Union">
<use xlink:href="#path0_fill" transform="translate(195 237)"/>
</g>
<g id="Intersect">
<use xlink:href="#path1_fill" transform="translate(197.84 239.84)"/>
</g>
</g>
</g>
<defs>
<path id="path0_fill" fill-rule="evenodd" d="M 6 12C 9.31371 12 12 9.31371 12 6C 12 2.68629 9.31371 0 6 0C 2.68629 0 0 2.68629 0 6C 0 9.31371 2.68629 12 6 12ZM 6 11C 8.76143 11 11 8.76143 11 6C 11 3.23857 8.76143 1 6 1C 3.23858 1 1 3.23857 1 6C 1 8.76143 3.23858 11 6 11Z"/>
<path id="path1_fill" fill-rule="evenodd" d="M 6.31985 0.707108L 3.86703 3.15993L 6.31985 5.61275C 6.11455 5.87687 5.87686 6.11456 5.61275 6.31986L 3.15993 3.86704L 0.707108 6.31986C 0.442993 6.11456 0.205307 5.87687 0 5.61275L 2.45282 3.15993L 0 0.707108C 0.205307 0.442997 0.442993 0.205307 0.707108 0L 3.15993 2.45282L 5.61275 0C 5.87686 0.205307 6.11455 0.442997 6.31985 0.707108Z"/>
</defs>
</svg>
