<svg width="1001" height="1001" viewBox="0 0 1001 1001" version="1.1" xmlns="http://www.w3.org/2000/svg" xmlns:xlink="http://www.w3.org/1999/xlink">
<title>u25A6-SQUARE WITH ORTHOGONAL CROSSHATCH FILL</title>
<desc>Created using Figma</desc>
<g id="Canvas" transform="matrix(83.3333 0 0 83.3333 0 -6500)">
<g id="u25A6-SQUARE WITH ORTHOGONAL CROSSHATCH FILL">
<path d="M -1.81594e-14 78L 12 78L 12 90L -1.81594e-14 90L -1.81594e-14 78Z" fill="#FFFFFF"/>
<g id="Union">
<use xlink:href="#path0_fill" transform="translate(-1.81594e-14 78)"/>
</g>
</g>
</g>
<defs>
<path id="path0_fill" fill-rule="evenodd" d="M 0 0L 0 12L 12 12L 12 0L 0 0ZM 1 1L 1 11L 11 11L 11 1L 1 1ZM 1.75 9.25L 1.75 9.75L 1.75 10.25L 2.25 10.25L 2.75 10.25L 3.25 10.25L 3.75 10.25L 4.25 10.25L 4.75 10.25L 5.25 10.25L 5.75 10.25L 6.25 10.25L 6.75 10.25L 7.25 10.25L 7.75 10.25L 8.25 10.25L 8.75 10.25L 9.25 10.25L 9.75 10.25L 10.25 10.25L 10.25 9.75L 10.25 9.25L 10.25 8.75L 10.25 8.25L 10.25 7.75L 10.25 7.25L 10.25 6.75L 10.25 6.25L 10.25 5.75L 10.25 5.25L 10.25 4.75L 10.25 4.25L 10.25 3.75L 10.25 3.25L 10.25 2.75L 10.25 2.25L 10.25 1.75L 9.75 1.75L 9.25 1.75L 8.75 1.75L 8.25 1.75L 7.75 1.75L 7.25 1.75L 6.75 1.75L 6.25 1.75L 5.75 1.75L 5.25 1.75L 4.75 1.75L 4.25 1.75L 3.75 1.75L 3.25 1.75L 2.75 1.75L 2.25 1.75L 1.75 1.75L 1.75 2.25L 1.75 2.75L 1.75 3.25L 1.75 3.75L 1.75 4.25L 1.75 4.75L 1.75 5.25L 1.75 5.75L 1.75 6.25L 1.75 6.75L 1.75 7.25L 1.75 7.75L 1.75 8.25L 1.75 8.75L 1.75 9.25ZM 2.25 9.25L 2.25 9.75L 2.75 9.75L 2.75 9.25L 2.25 9.25ZM 3.25 9.25L 3.25 9.75L 3.75 9.75L 3.75 9.25L 3.25 9.25ZM 3.75 8.75L 3.25 8.75L 3.25 8.25L 3.75 8.25L 3.75 8.75ZM 4.25 9.25L 4.25 9.75L 4.75 9.75L 4.75 9.25L 4.25 9.25ZM 4.75 8.75L 4.25 8.75L 4.25 8.25L 4.75 8.25L 4.75 8.75ZM 5.25 9.25L 5.25 9.75L 5.75 9.75L 5.75 9.25L 5.25 9.25ZM 5.75 8.75L 5.25 8.75L 5.25 8.25L 5.75 8.25L 5.75 8.75ZM 6.25 9.25L 6.25 9.75L 6.75 9.75L 6.75 9.25L 6.25 9.25ZM 6.75 8.75L 6.25 8.75L 6.25 8.25L 6.75 8.25L 6.75 8.75ZM 7.25 9.25L 7.25 9.75L 7.75 9.75L 7.75 9.25L 7.25 9.25ZM 7.75 8.75L 7.25 8.75L 7.25 8.25L 7.75 8.25L 7.75 8.75ZM 8.25 9.25L 8.25 9.75L 8.75 9.75L 8.75 9.25L 8.25 9.25ZM 8.75 8.75L 8.25 8.75L 8.25 8.25L 8.75 8.25L 8.75 8.75ZM 9.25 9.25L 9.25 9.75L 9.75 9.75L 9.75 9.25L 9.25 9.25ZM 9.75 8.75L 9.25 8.75L 9.25 8.25L 9.75 8.25L 9.75 8.75ZM 9.75 7.75L 9.75 7.25L 9.25 7.25L 9.25 7.75L 9.75 7.75ZM 8.75 7.75L 8.75 7.25L 8.25 7.25L 8.25 7.75L 8.75 7.75ZM 7.75 7.75L 7.75 7.25L 7.25 7.25L 7.25 7.75L 7.75 7.75ZM 6.75 7.75L 6.75 7.25L 6.25 7.25L 6.25 7.75L 6.75 7.75ZM 5.75 7.75L 5.75 7.25L 5.25 7.25L 5.25 7.75L 5.75 7.75ZM 4.75 7.75L 4.75 7.25L 4.25 7.25L 4.25 7.75L 4.75 7.75ZM 3.75 7.75L 3.75 7.25L 3.25 7.25L 3.25 7.75L 3.75 7.75ZM 2.75 7.75L 2.75 7.25L 2.25 7.25L 2.25 7.75L 2.75 7.75ZM 2.25 8.25L 2.25 8.75L 2.75 8.75L 2.75 8.25L 2.25 8.25ZM 2.25 6.75L 2.75 6.75L 2.75 6.25L 2.25 6.25L 2.25 6.75ZM 2.25 5.75L 2.75 5.75L 2.75 5.25L 2.25 5.25L 2.25 5.75ZM 2.25 4.75L 2.75 4.75L 2.75 4.25L 2.25 4.25L 2.25 4.75ZM 2.25 3.75L 2.75 3.75L 2.75 3.25L 2.25 3.25L 2.25 3.75ZM 2.25 2.75L 2.75 2.75L 2.75 2.25L 2.25 2.25L 2.25 2.75ZM 3.25 2.25L 3.25 2.75L 3.75 2.75L 3.75 2.25L 3.25 2.25ZM 4.25 2.25L 4.25 2.75L 4.75 2.75L 4.75 2.25L 4.25 2.25ZM 5.25 2.25L 5.25 2.75L 5.75 2.75L 5.75 2.25L 5.25 2.25ZM 6.25 2.25L 6.25 2.75L 6.75 2.75L 6.75 2.25L 6.25 2.25ZM 7.25 2.25L 7.25 2.75L 7.75 2.75L 7.75 2.25L 7.25 2.25ZM 8.25 2.25L 8.25 2.75L 8.75 2.75L 8.75 2.25L 8.25 2.25ZM 9.25 2.25L 9.25 2.75L 9.75 2.75L 9.75 2.25L 9.25 2.25ZM 9.75 3.25L 9.25 3.25L 9.25 3.75L 9.75 3.75L 9.75 3.25ZM 9.75 4.25L 9.25 4.25L 9.25 4.75L 9.75 4.75L 9.75 4.25ZM 9.75 5.25L 9.25 5.25L 9.25 5.75L 9.75 5.75L 9.75 5.25ZM 9.75 6.25L 9.25 6.25L 9.25 6.75L 9.75 6.75L 9.75 6.25ZM 8.75 6.75L 8.75 6.25L 8.25 6.25L 8.25 6.75L 8.75 6.75ZM 7.75 6.75L 7.75 6.25L 7.25 6.25L 7.25 6.75L 7.75 6.75ZM 6.75 6.75L 6.75 6.25L 6.25 6.25L 6.25 6.75L 6.75 6.75ZM 5.75 6.75L 5.75 6.25L 5.25 6.25L 5.25 6.75L 5.75 6.75ZM 4.75 6.75L 4.75 6.25L 4.25 6.25L 4.25 6.75L 4.75 6.75ZM 3.75 6.75L 3.75 6.25L 3.25 6.25L 3.25 6.75L 3.75 6.75ZM 3.25 5.75L 3.75 5.75L 3.75 5.25L 3.25 5.25L 3.25 5.75ZM 3.25 4.75L 3.75 4.75L 3.75 4.25L 3.25 4.25L 3.25 4.75ZM 3.25 3.75L 3.75 3.75L 3.75 3.25L 3.25 3.25L 3.25 3.75ZM 4.25 3.25L 4.25 3.75L 4.75 3.75L 4.75 3.25L 4.25 3.25ZM 5.25 3.25L 5.25 3.75L 5.75 3.75L 5.75 3.25L 5.25 3.25ZM 6.25 3.25L 6.25 3.75L 6.75 3.75L 6.75 3.25L 6.25 3.25ZM 7.25 3.25L 7.25 3.75L 7.75 3.75L 7.75 3.25L 7.25 3.25ZM 8.25 3.25L 8.25 3.75L 8.75 3.75L 8.75 3.25L 8.25 3.25ZM 8.75 4.25L 8.25 4.25L 8.25 4.75L 8.75 4.75L 8.75 4.25ZM 8.75 5.25L 8.25 5.25L 8.25 5.75L 8.75 5.75L 8.75 5.25ZM 7.75 5.75L 7.75 5.25L 7.25 5.25L 7.25 5.75L 7.75 5.75ZM 6.75 5.75L 6.75 5.25L 6.25 5.25L 6.25 5.75L 6.75 5.75ZM 5.75 5.75L 5.75 5.25L 5.25 5.25L 5.25 5.75L 5.75 5.75ZM 4.75 5.75L 4.75 5.25L 4.25 5.25L 4.25 5.75L 4.75 5.75ZM 4.25 4.75L 4.75 4.75L 4.75 4.25L 4.25 4.25L 4.25 4.75ZM 5.25 4.25L 5.25 4.75L 5.75 4.75L 5.75 4.25L 5.25 4.25ZM 6.25 4.25L 6.25 4.75L 6.75 4.75L 6.75 4.25L 6.25 4.25ZM 7.25 4.25L 7.25 4.75L 7.75 4.75L 7.75 4.25L 7.25 4.25Z"/>
</defs>
</svg>
