<svg width="1000" height="1000" viewBox="0 0 1000 1000" version="1.1" xmlns="http://www.w3.org/2000/svg" xmlns:xlink="http://www.w3.org/1999/xlink" xmlns:figma="http://www.figma.com/figma/ns">
<title>u25A9-SQUARE WITH DIAGONAL CROSSHATCH FILL</title>
<desc>Created using Figma</desc>
<g id="Canvas" transform="matrix(83.3333 0 0 83.3333 0 -9833.33)" figma:type="canvas">
<g id="u25A9-SQUARE WITH DIAGONAL CROSSHATCH FILL" style="mix-blend-mode:normal;" figma:type="frame">
<path d="M -9.30979e-15 118L 12 118L 12 130L -9.30979e-15 130L -9.30979e-15 118Z" fill="#FFFFFF"/>
<g id="Union" style="mix-blend-mode:normal;" figma:type="vector-operation">
<use xlink:href="#path0_fill" transform="translate(-1.15463e-14 118)" style="mix-blend-mode:normal;"/>
</g>
</g>
</g>
<defs>
<path id="path0_fill" fill-rule="evenodd" d="M 0 0L 0 12L 12 12L 12 0L 0 0ZM 1 1L 1 11L 11 11L 11 1L 1 1ZM 2 4.37437L 2 3.88908L 2.11092 3.77817L 2 3.66725L 2 3.18198L 2 2.96015L 2 2.47487L 2.11092 2.36395L 2 2.25304L 2 2L 2.45407 2L 2.46447 2.01041L 2.47487 2L 3.16118 2L 3.18198 2L 3.86828 2L 3.87868 2.0104L 3.88909 2L 4.57538 2L 4.59619 2L 5.28249 2L 5.2929 2.01041L 5.3033 2L 5.98959 2L 6.01041 2L 6.6967 2L 6.7071 2.01041L 6.71751 2L 7.40381 2L 7.42462 2L 8.11091 2L 8.12132 2.01041L 8.13172 2L 8.81802 2L 8.83883 2L 9.52513 2L 9.53553 2.01041L 9.54594 2L 10 2L 10 2.25304L 9.88909 2.36396L 10 2.47487L 10 2.96015L 10 3.18198L 10 3.66726L 9.88909 3.77818L 10 3.88908L 10 4.37437L 10 4.59619L 10 5.08147L 9.88909 5.19238L 10 5.3033L 10 5.78858L 10 6.01041L 10 6.49568L 9.88909 6.6066L 10 6.71751L 10 7.2028L 10 7.42461L 10 7.9099L 9.88909 8.02081L 10 8.13171L 10 8.617L 10 8.83882L 10 9.32411L 9.88909 9.43502L 10 9.54594L 10 10L 9.74696 10L 9.53554 9.78857L 9.32411 10L 9.03985 10L 8.61701 10L 8.33275 10L 8.12132 9.78857L 7.9099 10L 7.62563 10L 7.20279 10L 6.91853 10L 6.70711 9.78857L 6.49568 10L 6.21142 10L 5.78858 10L 5.50432 10L 5.29289 9.78857L 5.08147 10L 4.7972 10L 4.37436 10L 4.0901 10L 3.87868 9.78857L 3.66725 10L 3.38299 10L 2.96015 10L 2.67589 10L 2.46446 9.78857L 2.25304 10L 2 10L 2 9.54594L 2.11091 9.43503L 2 9.32411L 2 8.83883L 2 8.61701L 2 8.13172L 2.11091 8.02081L 2 7.9099L 2 7.42461L 2 7.2028L 2 6.71751L 2.11091 6.6066L 2 6.49568L 2 6.01041L 2 5.78858L 2 5.3033L 2.11092 5.19238L 2 5.08147L 2 4.59619L 2 4.37437ZM 2.11091 4.48528L 2.46447 4.83884L 2.81802 4.48528L 2.46447 4.13172L 2.11091 4.48528ZM 2.81802 3.77818L 3.17157 4.13173L 3.52513 3.77817L 3.17158 3.42461L 2.81802 3.77818ZM 3.52513 3.07106L 3.87868 3.42461L 4.23224 3.07106L 3.87868 2.71751L 3.52513 3.07106ZM 3.52513 2.36395L 3.17158 2.71751L 2.81802 2.36395L 3.17158 2.0104L 3.52513 2.36395ZM 2.46447 2.71751L 2.81802 3.07106L 2.46447 3.42462L 2.11091 3.07107L 2.46447 2.71751ZM 4.23224 2.36395L 4.58579 2.71751L 4.93934 2.36396L 4.58579 2.01041L 4.23224 2.36395ZM 5.2929 2.71751L 4.93935 3.07106L 5.2929 3.42461L 5.64645 3.07106L 5.2929 2.71751ZM 6 3.42461L 5.64645 3.77817L 6 4.13172L 6.35355 3.77817L 6 3.42461ZM 6.70711 3.42461L 6.35355 3.07106L 6.7071 2.71751L 7.06066 3.07107L 6.70711 3.42461ZM 6.70711 4.13172L 6.35356 4.48528L 6.70711 4.83883L 7.06066 4.48528L 6.70711 4.13172ZM 7.41421 4.13172L 7.06066 3.77817L 7.41421 3.42462L 7.76776 3.77818L 7.41421 4.13172ZM 7.41421 4.83883L 7.06066 5.19238L 7.41422 5.54594L 7.76777 5.19238L 7.41421 4.83883ZM 8.12132 4.83883L 7.76777 4.48528L 8.12132 4.13172L 8.47487 4.48528L 8.12132 4.83883ZM 8.12132 5.54594L 7.76777 5.89948L 8.12133 6.25304L 8.47488 5.89949L 8.12132 5.54594ZM 8.82843 5.54594L 8.47487 5.19238L 8.82843 4.83883L 9.18198 5.19239L 8.82843 5.54594ZM 8.82843 6.25304L 8.47488 6.60659L 8.82843 6.96014L 9.18198 6.6066L 8.82843 6.25304ZM 9.53554 6.25304L 9.18198 5.89949L 9.53553 5.54594L 9.88909 5.89949L 9.53554 6.25304ZM 9.53553 6.96015L 9.18198 7.3137L 9.53554 7.66725L 9.88909 7.31371L 9.53553 6.96015ZM 9.18199 8.02081L 8.82843 7.66725L 8.47487 8.02081L 8.82843 8.37437L 9.18199 8.02081ZM 8.47488 8.72791L 8.12132 8.37436L 7.76776 8.72791L 8.12132 9.08147L 8.47488 8.72791ZM 8.47487 9.43502L 8.82843 9.08147L 9.18198 9.43502L 8.82843 9.78858L 8.47487 9.43502ZM 9.53553 9.08147L 9.18198 8.72791L 9.53554 8.37436L 9.88909 8.72791L 9.53553 9.08147ZM 7.76777 9.43502L 7.41421 9.08147L 7.06066 9.43502L 7.41421 9.78858L 7.76777 9.43502ZM 6.70711 9.08147L 7.06066 8.72791L 6.70711 8.37436L 6.35355 8.72792L 6.70711 9.08147ZM 6 8.37437L 6.35356 8.02081L 6 7.66725L 5.64644 8.02081L 6 8.37437ZM 5.29289 8.37436L 5.64645 8.72791L 5.29289 9.08147L 4.93934 8.72792L 5.29289 8.37436ZM 5.29289 7.66726L 5.64645 7.3137L 5.29289 6.96014L 4.93934 7.31371L 5.29289 7.66726ZM 4.58579 7.66725L 4.93934 8.02081L 4.58578 8.37437L 4.23223 8.02081L 4.58579 7.66725ZM 4.58578 6.96015L 4.93934 6.6066L 4.58579 6.25304L 4.23223 6.6066L 4.58578 6.96015ZM 3.87868 6.96015L 4.23223 7.31371L 3.87868 7.66726L 3.52512 7.31371L 3.87868 6.96015ZM 3.87868 6.25304L 4.23223 5.89949L 3.87868 5.54594L 3.52512 5.89949L 3.87868 6.25304ZM 3.17157 6.25304L 3.52513 6.6066L 3.17157 6.96015L 2.81802 6.6066L 3.17157 6.25304ZM 3.17157 5.54594L 3.52513 5.19238L 3.17158 4.83883L 2.81802 5.19239L 3.17157 5.54594ZM 2.46447 5.54594L 2.81802 5.89949L 2.46446 6.25304L 2.11091 5.8995L 2.46447 5.54594ZM 3.52513 4.48528L 3.87868 4.83883L 4.23224 4.48528L 3.87869 4.13172L 3.52513 4.48528ZM 4.23224 3.77817L 4.58579 4.13172L 4.93934 3.77817L 4.58579 3.42461L 4.23224 3.77817ZM 5.2929 4.13172L 4.93934 4.48528L 5.29289 4.83883L 5.64645 4.48528L 5.2929 4.13172ZM 6 4.83883L 5.64645 5.19238L 6 5.54594L 6.35356 5.19238L 6 4.83883ZM 6.70711 5.54593L 6.35355 5.89949L 6.70711 6.25304L 7.06066 5.89949L 6.70711 5.54593ZM 7.41422 6.25304L 7.06066 6.6066L 7.41422 6.96015L 7.76777 6.60659L 7.41422 6.25304ZM 8.12132 6.96014L 7.76777 7.31371L 8.12132 7.66726L 8.47488 7.3137L 8.12132 6.96014ZM 7.76777 8.02081L 7.41422 7.66725L 7.06066 8.02081L 7.41421 8.37437L 7.76777 8.02081ZM 6.70711 7.66726L 7.06066 7.3137L 6.70711 6.96014L 6.35355 7.31371L 6.70711 7.66726ZM 6 6.96015L 6.35356 6.60659L 6 6.25304L 5.64644 6.6066L 6 6.96015ZM 5.29289 6.25304L 5.64645 5.89949L 5.2929 5.54594L 4.93934 5.89949L 5.29289 6.25304ZM 4.58578 5.54594L 4.93934 5.19238L 4.58579 4.83883L 4.23223 5.19238L 4.58578 5.54594ZM 2.46447 6.96015L 2.11091 7.31371L 2.46446 7.66726L 2.81802 7.31371L 2.46447 6.96015ZM 3.17157 7.66726L 2.81802 8.02081L 3.17157 8.37437L 3.52513 8.02081L 3.17157 7.66726ZM 3.87868 8.37436L 3.52512 8.72792L 3.87868 9.08147L 4.23223 8.72791L 3.87868 8.37436ZM 4.58578 9.08147L 4.23223 9.43502L 4.58578 9.78858L 4.93934 9.43502L 4.58578 9.08147ZM 3.52513 9.43502L 3.17157 9.08147L 2.81801 9.43502L 3.17157 9.78858L 3.52513 9.43502ZM 2.46446 9.08147L 2.81802 8.72792L 2.46447 8.37437L 2.11091 8.72792L 2.46446 9.08147ZM 5.64644 9.43503L 6 9.08147L 6.35356 9.43502L 6 9.78858L 5.64644 9.43503ZM 9.53553 4.83884L 9.88909 4.48528L 9.53553 4.13172L 9.18198 4.48528L 9.53553 4.83884ZM 8.82843 4.13173L 9.18198 3.77818L 8.82843 3.42461L 8.47487 3.77817L 8.82843 4.13173ZM 8.12132 3.42462L 8.47487 3.07107L 8.12132 2.71751L 7.76776 3.07107L 8.12132 3.42462ZM 7.41421 2.71751L 7.76776 2.36396L 7.41421 2.01041L 7.06066 2.36396L 7.41421 2.71751ZM 8.47487 2.36396L 8.82843 2.71751L 9.18198 2.36396L 8.82843 2.01041L 8.47487 2.36396ZM 9.53553 2.71751L 9.18198 3.07107L 9.53553 3.42462L 9.88909 3.07107L 9.53553 2.71751ZM 6.35355 2.36396L 6 2.71751L 5.64645 2.36396L 6 2.01041L 6.35355 2.36396Z"/>
</defs>
</svg>
