<svg width="1001" height="1001" viewBox="0 0 1001 1001" version="1.1" xmlns="http://www.w3.org/2000/svg" xmlns:xlink="http://www.w3.org/1999/xlink">
<title>u25CD-CIRCLE WITH VERTICAL FILL</title>
<desc>Created using Figma</desc>
<g id="Canvas" transform="matrix(83.3333 0 0 83.3333 -2333.33 -14166.7)">
<g id="u25CD-CIRCLE WITH VERTICAL FILL">
<path d="M 28 170L 40 170L 40 182L 28 182L 28 170Z" fill="#FFFFFF"/>
<g id="Union">
<use xlink:href="#path0_fill" transform="translate(28 170)"/>
</g>
</g>
</g>
<defs>
<path id="path0_fill" fill-rule="evenodd" d="M 12 6C 12 9.31371 9.31371 12 6 12C 2.68629 12 0 9.31371 0 6C 0 2.68629 2.68629 0 6 0C 9.31371 0 12 2.68629 12 6ZM 11 6C 11 8.76143 8.76143 11 6 11C 3.23858 11 1 8.76143 1 6C 1 3.23857 3.23858 1 6 1C 8.76143 1 11 3.23857 11 6ZM 2 6C 2 5.50934 2.08835 5.03931 2.25 4.60495L 2.25 7.39505C 2.08835 6.96069 2 6.49066 2 6ZM 2.75 8.33237C 2.89837 8.53874 3.0659 8.73041 3.25 8.90475L 3.25 3.09525C 3.0659 3.26959 2.89837 3.46126 2.75 3.66763L 2.75 8.33237ZM 3.75 9.30766C 3.90884 9.41592 4.07588 9.51303 4.25 9.59789L 4.25 2.40211C 4.07588 2.48697 3.90884 2.58408 3.75 2.69234L 3.75 9.30766ZM 4.75 9.80081C 4.91233 9.85417 5.07924 9.89742 5.25 9.92981L 5.25 2.07019C 5.07924 2.10258 4.91233 2.14583 4.75 2.19919L 4.75 9.80081ZM 6 10C 6.08396 10 6.16732 9.99741 6.25 9.99231L 6.25 2.00769C 6.16732 2.00259 6.08396 2 6 2C 5.91604 2 5.83268 2.00259 5.75 2.00769L 5.75 9.99231C 5.83268 9.99741 5.91604 10 6 10ZM 6.75 9.92981C 6.92076 9.89742 7.08767 9.85417 7.25 9.80081L 7.25 2.19919C 7.08767 2.14583 6.92076 2.10258 6.75 2.07019L 6.75 9.92981ZM 7.75 9.59789C 7.92412 9.51303 8.09116 9.41592 8.25 9.30766L 8.25 2.69234C 8.09116 2.58408 7.92412 2.48697 7.75 2.40211L 7.75 9.59789ZM 8.75 8.90475C 8.9341 8.73041 9.10163 8.53874 9.25 8.33237L 9.25 3.66763C 9.10163 3.46126 8.9341 3.26959 8.75 3.09525L 8.75 8.90475ZM 10 6C 10 5.50934 9.91166 5.03931 9.75 4.60495L 9.75 7.39505C 9.91166 6.96069 10 6.49066 10 6Z"/>
</defs>
</svg>
