<svg width="600" height="600" viewBox="0 0 600 600" version="1.1" xmlns="http://www.w3.org/2000/svg" xmlns:xlink="http://www.w3.org/1999/xlink" xmlns:figma="http://www.figma.com/figma/ns">
<title>u25CC-DOTTED CIRCLE</title>
<desc>Created using Figma</desc>
<g id="Canvas" transform="matrix(50 0 0 50 -1400 -7850)" figma:type="canvas">
<g id="u25CC-DOTTED CIRCLE" style="mix-blend-mode:normal;" figma:type="frame">
<path d="M 28 157L 40 157L 40 169L 28 169L 28 157Z" fill="#FFFFFF"/>
<g id="Intersect" style="mix-blend-mode:normal;" figma:type="vector-operation">
<use xlink:href="#path0_fill" transform="translate(28 157)" style="mix-blend-mode:normal;"/>
</g>
</g>
</g>
<defs>
<path id="path0_fill" fill-rule="evenodd" d="M 6.5 11.9795C 6.33513 11.9931 6.16838 12 6 12C 5.83162 12 5.66487 11.9931 5.5 11.9795L 5.5 10.9753C 5.66445 10.9916 5.83125 11 6 11C 6.16875 11 6.33555 10.9916 6.5 10.9753L 6.5 11.9795ZM 7.42822 11.829C 7.30846 11.8582 7.18728 11.8839 7.06481 11.9058L 6.80484 10.9356C 7.13913 10.8815 7.46232 10.7942 7.77092 10.6773L 8.0309 11.6476C 7.91711 11.6885 7.80173 11.7261 7.68487 11.7602L 7.42822 11.829ZM 8.90039 11.2537C 8.78817 11.3158 8.67374 11.3743 8.55727 11.4293L 8.05508 10.5595C 8.36127 10.4213 8.65104 10.2531 8.92067 10.0587L 9.42285 10.9285C 9.31443 11.004 9.20341 11.0759 9.08994 11.1442L 8.90039 11.2537ZM 10.2403 10.245C 10.123 10.3621 10.001 10.4744 9.87442 10.5815L 9.16437 9.87148C 9.42292 9.6599 9.65989 9.42293 9.87148 9.16437L 10.5815 9.87442C 10.4744 10.001 10.3621 10.123 10.245 10.2402C 10.2434 10.2418 10.2418 10.2434 10.2403 10.245ZM 11.1442 9.09006C 11.0759 9.20349 11.0039 9.31447 10.9285 9.42285L 10.0587 8.92067C 10.2531 8.65105 10.4213 8.36127 10.5595 8.05507L 11.4293 8.55727C 11.3744 8.67369 11.3158 8.78807 11.2537 8.90025L 11.1442 9.09006ZM 11.7602 7.68503C 11.726 7.80183 11.6885 7.91718 11.6476 8.03091L 10.6773 7.77094C 10.7942 7.46234 10.8815 7.13914 10.9356 6.80486L 11.9058 7.06482C 11.8839 7.18723 11.8582 7.30835 11.829 7.42805L 11.7602 7.68503ZM 12 6C 12 6.16838 11.9931 6.33513 11.9795 6.5L 10.9753 6.5C 10.9916 6.33554 11 6.16875 11 6C 11 5.83125 10.9916 5.66446 10.9753 5.5L 11.9795 5.5C 11.9931 5.66487 12 5.83162 12 6ZM 11.8291 4.57211C 11.8583 4.69177 11.8839 4.81285 11.9058 4.9352L 10.9356 5.19516C 10.8815 4.86087 10.7942 4.53767 10.6773 4.22908L 11.6476 3.9691C 11.6885 4.08278 11.726 4.19806 11.7601 4.3148L 11.8291 4.57211ZM 11.2537 3.09959C 11.3157 3.21182 11.3743 3.32625 11.4293 3.44273L 10.5595 3.94493C 10.4213 3.63873 10.2531 3.34895 10.0588 3.07933L 10.9285 2.57715C 11.004 2.68558 11.0759 2.79662 11.1442 2.9101L 11.2537 3.09959ZM 10.245 1.75975C 10.3621 1.87698 10.4744 1.99902 10.5815 2.12558L 9.87148 2.83563C 9.6599 2.57707 9.42292 2.3401 9.16437 2.12852L 9.87442 1.41847C 10.001 1.5256 10.123 1.63788 10.2403 1.75497C 10.2418 1.75656 10.2434 1.75816 10.245 1.75975ZM 9.09003 0.85582C 9.20346 0.924103 9.31446 0.996048 9.42285 1.07146L 8.92067 1.94125C 8.65104 1.74689 8.36127 1.57874 8.05508 1.44051L 8.55727 0.570694C 8.67371 0.625641 8.78811 0.684219 8.9003 0.746292L 9.09003 0.85582ZM 7.68552 0.23999C 7.80215 0.274063 7.91732 0.311584 8.0309 0.352432L 7.77092 1.32268C 7.46232 1.20578 7.13913 1.11853 6.80484 1.06444L 7.06481 0.0941925C 7.18705 0.116089 7.30801 0.141693 7.42756 0.170868L 7.68552 0.23999ZM 6 0C 6.16838 0 6.33513 0.00694275 6.5 0.0205383L 6.5 1.02469C 6.33555 1.00836 6.16875 1 6 1C 5.83125 1 5.66445 1.00836 5.5 1.02469L 5.5 0.0205383C 5.66487 0.00694275 5.83162 0 6 0ZM 4.57236 0.170883C 4.69194 0.141693 4.81292 0.116104 4.93518 0.0942078L 5.19516 1.06444C 4.86086 1.11853 4.53767 1.20578 4.22907 1.32268L 3.9691 0.352432C 4.0827 0.311569 4.19789 0.274033 4.31455 0.23996L 4.57236 0.170883ZM 3.09986 0.746201C 3.21201 0.684158 3.32635 0.62561 3.44274 0.570694L 3.94493 1.44051C 3.63874 1.57874 3.34896 1.74689 3.07934 1.94125L 2.57716 1.07146C 2.6855 0.996078 2.79644 0.924164 2.90982 0.855911L 3.09986 0.746201ZM 1.75975 1.75497C 1.87698 1.63788 1.99903 1.5256 2.12558 1.41847L 2.83563 2.12852C 2.57708 2.3401 2.34011 2.57707 2.12852 2.83563L 1.41847 2.12558C 1.5256 1.99902 1.63787 1.87698 1.75497 1.75975C 1.75656 1.75816 1.75816 1.75656 1.75975 1.75497ZM 0.855843 2.90994C 0.924124 2.79651 0.996052 2.68553 1.07146 2.57715L 1.94125 3.07933C 1.74689 3.34895 1.57873 3.63873 1.4405 3.94493L 0.570692 3.44273C 0.625628 3.32631 0.684198 3.21193 0.746258 3.09975L 0.855843 2.90994ZM 0.239923 4.3147C 0.274012 4.198 0.31155 4.08276 0.352423 3.96912L 1.32267 4.2291C 1.20577 4.53769 1.11853 4.86087 1.06444 5.19516L 0.0941982 4.9352C 0.116108 4.81287 0.141724 4.69182 0.170927 4.57219L 0.239923 4.3147ZM 0 6C 0 5.83162 0.00693512 5.66487 0.0205364 5.5L 1.02469 5.5C 1.00836 5.66446 1 5.83125 1 6C 1 6.16875 1.00836 6.33554 1.02469 6.5L 0.0205364 6.5C 0.00693512 6.33513 0 6.16838 0 6ZM 0.170973 7.42799C 0.141752 7.3083 0.116121 7.18721 0.094202 7.06482L 1.06444 6.80486C 1.11853 7.13914 1.20578 7.46234 1.32268 7.77094L 0.352432 8.03091C 0.311527 7.91719 0.273962 7.80185 0.239851 7.68506L 0.170973 7.42799ZM 0.746214 8.90018C 0.684172 8.78802 0.625614 8.67368 0.570692 8.55727L 1.4405 8.05507C 1.57873 8.36127 1.74689 8.65105 1.94125 8.92067L 1.07146 9.42285C 0.996069 9.3145 0.924158 9.20354 0.85589 9.09013L 0.746214 8.90018ZM 1.75358 10.2389C 1.63698 10.1221 1.52518 10.0005 1.41847 9.87442L 2.12852 9.16437C 2.34011 9.42293 2.57708 9.6599 2.83563 9.87148L 2.12558 10.5815C 1.99953 10.4748 1.87794 10.363 1.76114 10.2464C 1.75862 10.2439 1.7561 10.2414 1.75358 10.2389ZM 2.90991 11.1441C 2.7965 11.0759 2.68552 11.004 2.57716 10.9285L 3.07933 10.0587C 3.34896 10.2531 3.63873 10.4213 3.94492 10.5595L 3.44274 11.4293C 3.32631 11.3744 3.21194 11.3158 3.09977 11.2538L 2.90991 11.1441ZM 4.3152 11.7602C 4.19831 11.7261 4.08291 11.6885 3.9691 11.6476L 4.22907 10.6773C 4.53767 10.7942 4.86087 10.8815 5.19516 10.9356L 4.93518 11.9058C 4.8127 11.8839 4.6915 11.8582 4.57172 11.829L 4.3152 11.7602Z"/>
</defs>
</svg>
