<svg width="600" height="600" viewBox="0 0 600 600" version="1.1" xmlns="http://www.w3.org/2000/svg" xmlns:xlink="http://www.w3.org/1999/xlink" xmlns:figma="http://www.figma.com/figma/ns">
<title>u25C9-FISHEYE</title>
<desc>Created using Figma</desc>
<g id="Canvas" transform="matrix(50 0 0 50 -1400 -5900)" figma:type="canvas">
<g id="u25C9-FISHEYE" style="mix-blend-mode:normal;" figma:type="frame">
<path d="M 28 118L 40 118L 40 130L 28 130L 28 118Z" fill="#FFFFFF"/>
<g id="Union" style="mix-blend-mode:normal;" figma:type="vector-operation">
<use xlink:href="#path0_fill" transform="translate(28 118)" style="mix-blend-mode:normal;"/>
</g>
</g>
</g>
<defs>
<path id="path0_fill" fill-rule="evenodd" d="M 12 6C 12 9.31371 9.31371 12 6 12C 2.68629 12 0 9.31371 0 6C 0 2.68629 2.68629 0 6 0C 9.31371 0 12 2.68629 12 6ZM 11 6C 11 8.76143 8.76143 11 6 11C 3.23858 11 1 8.76143 1 6C 1 3.23857 3.23858 1 6 1C 8.76143 1 11 3.23857 11 6ZM 6 10C 8.20914 10 10 8.20914 10 6C 10 3.79086 8.20914 2 6 2C 3.79086 2 2 3.79086 2 6C 2 8.20914 3.79086 10 6 10Z"/>
</defs>
</svg>
