<svg width="600" height="600" viewBox="0 0 600 600" version="1.1" xmlns="http://www.w3.org/2000/svg" xmlns:xlink="http://www.w3.org/1999/xlink" xmlns:figma="http://www.figma.com/figma/ns">
<title>u25D3-CIRCLE WITH UPPER HALF BLACK</title>
<desc>Created using Figma</desc>
<g id="Canvas" transform="matrix(50 0 0 50 -1950 -1950)" figma:type="canvas">
<g id="u25D3-CIRCLE WITH UPPER HALF BLACK" style="mix-blend-mode:normal;" figma:type="frame">
<path d="M 39 39L 51 39L 51 51L 39 51L 39 39Z" fill="#FFFFFF"/>
<g id="Subtract" style="mix-blend-mode:normal;" figma:type="vector-operation">
<use xlink:href="#path0_fill" transform="matrix(-1.83697e-16 -1 1 -1.83697e-16 39 51)" style="mix-blend-mode:normal;"/>
</g>
</g>
</g>
<defs>
<path id="path0_fill" fill-rule="evenodd" d="M 6 12C 9.31371 12 12 9.31371 12 6C 12 2.68629 9.31371 0 6 0C 2.68629 0 0 2.68629 0 6C 0 9.31371 2.68629 12 6 12ZM 6 11C 6.0237 11 6.04737 10.9998 6.071 10.9995L 6.071 1.00049C 6.04737 1.00016 6.0237 1 6 1C 3.23857 1 1 3.23858 1 6C 1 8.76142 3.23857 11 6 11Z"/>
</defs>
</svg>
