<svg width="1084" height="1001" viewBox="0 0 1084 1001" version="1.1" xmlns="http://www.w3.org/2000/svg" xmlns:xlink="http://www.w3.org/1999/xlink">
<title>u25D0-CIRCLE WITH LEFT HALF BLACK</title>
<desc>Created using Figma</desc>
<g id="Canvas" transform="matrix(83.3333 0 0 83.3333 -3166.67 0)">
<g id="u25D0-CIRCLE WITH LEFT HALF BLACK">
<path d="M 38.929 0L 50.929 0L 50.929 12L 38.929 12L 38.929 0Z" fill="#FFFFFF"/>
<g id="Subtract">
<use xlink:href="#path0_fill" transform="matrix(-1 0 0 1 50.929 0)"/>
</g>
</g>
</g>
<defs>
<path id="path0_fill" fill-rule="evenodd" d="M 6 12C 9.31371 12 12 9.31371 12 6C 12 2.68629 9.31371 0 6 0C 2.68629 0 0 2.68629 0 6C 0 9.31371 2.68629 12 6 12ZM 6.071 10.9995L 6.071 1.00049C 6.04737 1.00016 6.0237 1 6 1C 3.23857 1 1 3.23858 1 6C 1 8.76142 3.23857 11 6 11C 6.0237 11 6.04737 10.9998 6.071 10.9995Z"/>
</defs>
</svg>
