<svg width="1000" height="1000" viewBox="0 0 1000 1000" version="1.1" xmlns="http://www.w3.org/2000/svg" xmlns:xlink="http://www.w3.org/1999/xlink" xmlns:figma="http://www.figma.com/figma/ns">
<title>u25D4-CIRCLE WITH UPPER RIGHT QUADRANT BLACK</title>
<desc>Created using Figma</desc>
<g id="Canvas" transform="matrix(83.3333 0 0 83.3333 -3250 -4333.33)" figma:type="canvas">
<g id="u25D4-CIRCLE WITH UPPER RIGHT QUADRANT BLACK" style="mix-blend-mode:normal;" figma:type="frame">
<path d="M 39 52L 51 52L 51 64L 39 64L 39 52Z" fill="#FFFFFF"/>
<g id="Subtract" style="mix-blend-mode:normal;" figma:type="vector-operation">
<use xlink:href="#path0_fill" transform="matrix(-1.83697e-16 -1 1 -1.83697e-16 39 64)" style="mix-blend-mode:normal;"/>
</g>
</g>
</g>
<defs>
<path id="path0_fill" fill-rule="evenodd" d="M 6 12C 9.31371 12 12 9.31371 12 6C 12 2.68629 9.31371 6.08719e-16 6 0C 2.68629 -6.08719e-16 6.08719e-16 2.68629 0 6C -6.08719e-16 9.31371 2.68629 12 6 12ZM 6 6L 6 11C 3.23857 11 1 8.76143 1 6C 1 3.23857 3.23857 1 6 1C 8.76143 1 11 3.23857 11 6L 6 6Z"/>
</defs>
</svg>
