<svg width="1167" height="1167" viewBox="0 0 1167 1167" version="1.1" xmlns="http://www.w3.org/2000/svg" xmlns:xlink="http://www.w3.org/1999/xlink">
<title>u25EF-LARGE CIRCLE</title>
<desc>Created using Figma</desc>
<g id="Canvas" transform="matrix(83.3333 0 0 83.3333 -4500 -16250)">
<g id="u25EF-LARGE CIRCLE">
<path d="M 54 196L 68 196L 68 208L 54 208L 54 196Z" fill="#FFFFFF"/>
<g id="Subtract">
<use xlink:href="#path0_fill" transform="translate(54 195)"/>
</g>
</g>
</g>
<defs>
<path id="path0_fill" fill-rule="evenodd" d="M 7 14C 10.866 14 14 10.866 14 7C 14 3.134 10.866 0 7 0C 3.13401 0 0 3.134 0 7C 0 10.866 3.13401 14 7 14ZM 7 13C 10.3137 13 13 10.3137 13 7C 13 3.68629 10.3137 1 7 1C 3.68629 1 1 3.68629 1 7C 1 10.3137 3.68629 13 7 13Z"/>
</defs>
</svg>
