<svg width="600" height="600" viewBox="0 0 600 600" version="1.1" xmlns="http://www.w3.org/2000/svg" xmlns:xlink="http://www.w3.org/1999/xlink" xmlns:figma="http://www.figma.com/figma/ns">
<title>u25E6-WHITE BULLET</title>
<desc>Created using Figma</desc>
<g id="Canvas" transform="matrix(50 0 0 50 -2600 -3900)" figma:type="canvas">
<g id="u25E6-WHITE BULLET" style="mix-blend-mode:normal;isolation:isolate;" figma:type="frame">
<path d="M 52 78L 64 78L 64 90L 52 90L 52 78Z" fill="#FFFFFF"/>
<g id="Subtract" style="mix-blend-mode:normal;" figma:type="vector-operation">
<use xlink:href="#path0_fill" transform="translate(56 82)" style="mix-blend-mode:normal;"/>
</g>
</g>
</g>
<defs>
<path id="path0_fill" fill-rule="evenodd" d="M 2 4C 3.10457 4 4 3.10457 4 2C 4 0.895432 3.10457 0 2 0C 0.895432 0 0 0.895432 0 2C 0 3.10457 0.895432 4 2 4ZM 2 3C 2.55228 3 3 2.55228 3 2C 3 1.44772 2.55228 1 2 1C 1.44772 1 1 1.44772 1 2C 1 2.55228 1.44772 3 2 3Z"/>
</defs>
</svg>
