<svg width="1166.67" height="1000" viewBox="0 0 1166.67 1000" version="1.1" xmlns="http://www.w3.org/2000/svg" xmlns:xlink="http://www.w3.org/1999/xlink" xmlns:figma="http://www.figma.com/figma/ns">
<title>u25EC-WHITE UP-POINTING TRIANGLE WITH DOT</title>
<desc>Created using Figma</desc>
<g id="Canvas" transform="matrix(83.3333 0 0 83.3333 -4500 -13083.3)" figma:type="canvas">
<g id="u25EC-WHITE UP-POINTING TRIANGLE WITH DOT" style="mix-blend-mode:normal;" figma:type="frame">
<path d="M 54 157L 67.86 157L 67.86 169L 54 169L 54 157Z" fill="#FFFFFF"/>
<g id="Union" style="mix-blend-mode:normal;" figma:type="vector-operation">
<use xlink:href="#path0_fill" transform="translate(54 157)" style="mix-blend-mode:normal;"/>
</g>
</g>
</g>
<defs>
<path id="path0_fill" fill-rule="evenodd" d="M 6.9282 0L 13.8564 12L 0 12L 6.9282 0ZM 6.94615 2L 12.1423 11L 1.75 11L 6.94615 2ZM 7 9C 7.55228 9 8 8.55229 8 8C 8 7.44771 7.55228 7 7 7C 6.44772 7 6 7.44771 6 8C 6 8.55229 6.44772 9 7 9Z"/>
</defs>
</svg>
