<svg width="1001" height="1001" viewBox="0 0 1001 1001" version="1.1" xmlns="http://www.w3.org/2000/svg" xmlns:xlink="http://www.w3.org/1999/xlink">
<title>u25F3-WHITE SQUARE WITH UPPER RIGHT QUADRANT</title>
<desc>Created using Figma</desc>
<g id="Canvas" transform="matrix(83.3333 0 0 83.3333 -6416.67 -3250)">
<g id="u25F3-WHITE SQUARE WITH UPPER RIGHT QUADRANT">
<path d="M 77 39L 89 39L 89 51L 77 51L 77 39Z" fill="#FFFFFF"/>
<g id="Subtract">
<use xlink:href="#path0_fill" transform="matrix(-1.37927e-16 1 -1 -1.37927e-16 89 39)"/>
</g>
</g>
</g>
<defs>
<path id="path0_fill" fill-rule="evenodd" d="M 12 0L 0 0L 0 12L 12 12L 12 0ZM 11 1L 6 1L 6 6L 1 6L 1 11L 6 11L 11 11L 11 6L 11 1ZM 1 1L 5 1L 5 5L 1 5L 1 1Z"/>
</defs>
</svg>
