<svg width="1001" height="1001" viewBox="0 0 1001 1001" version="1.1" xmlns="http://www.w3.org/2000/svg" xmlns:xlink="http://www.w3.org/1999/xlink">
<title>u25F6-WHITE CIRCLE WITH LOWER RIGHT QUADRANT</title>
<desc>Created using Figma</desc>
<g id="Canvas" transform="matrix(83.3333 0 0 83.3333 -6416.67 -6500)">
<g id="u25F6-WHITE CIRCLE WITH LOWER RIGHT QUADRANT">
<path d="M 77 78L 89 78L 89 90L 77 90L 77 78Z" fill="#FFFFFF"/>
<g id="Exclude">
<use xlink:href="#path0_fill" transform="matrix(5.51091e-16 1 -1 5.51091e-16 89 78)"/>
</g>
</g>
</g>
<defs>
<path id="path0_fill" fill-rule="evenodd" d="M 6 12C 9.31371 12 12 9.31371 12 6C 12 2.68629 9.31371 0 6 0C 2.68629 0 0 2.68629 0 6C 0 9.31371 2.68629 12 6 12ZM 10.9 5C 10.5023 3.04087 8.95913 1.4977 7 1.10002L 7 5L 10.9 5ZM 6 11C 3.23858 11 1 8.76143 1 6C 1 3.23857 3.23858 1 6 1L 6 6L 11 6C 11 8.76143 8.76142 11 6 11Z"/>
</defs>
</svg>
