<svg width="1000" height="1000" viewBox="0 0 1000 1000" version="1.1" xmlns="http://www.w3.org/2000/svg" xmlns:xlink="http://www.w3.org/1999/xlink" xmlns:figma="http://www.figma.com/figma/ns">
<title>u25F7-WHITE CIRCLE WITH UPPER RIGHT QUADRANT</title>
<desc>Created using Figma</desc>
<g id="Canvas" transform="matrix(83.3333 0 0 83.3333 -6416.67 -7583.33)" figma:type="canvas">
<g id="u25F7-WHITE CIRCLE WITH UPPER RIGHT QUADRANT" style="mix-blend-mode:normal;isolation:isolate;" figma:type="frame">
<path d="M 77 91L 89 91L 89 103L 77 103L 77 91Z" fill="#FFFFFF"/>
<g id="Exclude" style="mix-blend-mode:normal;" figma:type="vector-operation">
<use xlink:href="#path0_fill" transform="matrix(1 -7.34788e-16 7.34788e-16 1 77 91)" style="mix-blend-mode:normal;"/>
</g>
</g>
</g>
<defs>
<path id="path0_fill" fill-rule="evenodd" d="M 6 12C 9.31371 12 12 9.31371 12 6C 12 2.68629 9.31371 0 6 0C 2.68629 0 0 2.68629 0 6C 0 9.31371 2.68629 12 6 12ZM 10.9 5C 10.5023 3.04087 8.95913 1.4977 7 1.10002L 7 5L 10.9 5ZM 6 11C 3.23858 11 1 8.76143 1 6C 1 3.23857 3.23858 1 6 1L 6 6L 11 6C 11 8.76143 8.76142 11 6 11Z"/>
</defs>
</svg>
