<svg width="1000" height="1000" viewBox="0 0 1000 1000" version="1.1" xmlns="http://www.w3.org/2000/svg" xmlns:xlink="http://www.w3.org/1999/xlink" xmlns:figma="http://www.figma.com/figma/ns">
<title>u2612-BALLOT BOX WITH X</title>
<desc>Created using Figma</desc>
<g id="Canvas" transform="matrix(83.3333 0 0 83.3333 -11666.7 -1083.33)" figma:type="canvas">
<g id="u2612-BALLOT BOX WITH X" style="mix-blend-mode:normal;" figma:type="frame">
<path d="M 140 13L 152 13L 152 25L 140 25L 140 13Z" fill="#FFFFFF"/>
<g id="Union" style="mix-blend-mode:normal;" figma:type="vector-operation">
<use xlink:href="#path0_fill" transform="translate(140 13)" style="mix-blend-mode:normal;"/>
</g>
</g>
</g>
<defs>
<path id="path0_fill" fill-rule="evenodd" d="M 0 0L 12 0L 12 12L 0 12L 0 0ZM 1 1L 11 1L 11 11L 1 11L 1 1ZM 9.96016 2.88909L 6.77818 6.07107L 9.96016 9.25305L 9.25305 9.96016L 6.07108 6.77818L 2.8891 9.96016L 2.18199 9.25305L 5.36397 6.07107L 2.18199 2.88909L 2.8891 2.18198L 6.07108 5.36396L 9.25305 2.18198L 9.96016 2.88909Z"/>
</defs>
</svg>
