<svg width="1000" height="1000" viewBox="0 0 1000 1000" version="1.1" xmlns="http://www.w3.org/2000/svg" xmlns:xlink="http://www.w3.org/1999/xlink" xmlns:figma="http://www.figma.com/figma/ns">
<title>u267E-PERMANENT PAPER SIGN</title>
<desc>Created using Figma</desc>
<g id="Canvas" transform="matrix(83.3333 0 0 83.3333 -11500 -17416.7)" figma:type="canvas">
<g id="u267E-PERMANENT PAPER SIGN" style="mix-blend-mode:normal;" figma:type="frame">
<path d="M 138 209L 150 209L 150 221L 138 221L 138 209Z" fill="#FFFFFF"/>
<g id="Union" style="mix-blend-mode:normal;" figma:type="vector-operation">
<use xlink:href="#path0_fill" transform="translate(138 209)" fill="#C4C4C4" style="mix-blend-mode:normal;"/>
</g>
</g>
</g>
<defs>
<path id="path0_fill" fill-rule="evenodd" d="M 6 12C 9.31371 12 12 9.31371 12 6C 12 2.68629 9.31371 0 6 0C 2.68629 0 0 2.68629 0 6C 0 9.31371 2.68629 12 6 12ZM 6 11C 8.76143 11 11 8.76143 11 6C 11 3.23857 8.76143 1 6 1C 3.23857 1 1 3.23857 1 6C 1 8.76143 3.23857 11 6 11ZM 4 8.00002C 4.47955 8.00002 4.95911 7.80475 5.325 7.41423L 5.9875 6.70711L 6 6.69377L 6.675 7.41422C 7.04089 7.80475 7.52045 8 8 8C 8.51184 8 9.02368 7.80475 9.41422 7.41422C 10.1953 6.63316 10.1953 5.36684 9.41422 4.58578C 9.02368 4.19527 8.51184 4.00002 8 3.99998C 7.52045 3.99998 7.04089 4.19525 6.675 4.58577L 6.0125 5.29289L 6 5.30623L 5.325 4.58578C 4.95911 4.19525 4.47955 4 4 4C 3.48816 4 2.97632 4.19525 2.58578 4.58578C 1.80473 5.36684 1.80473 6.63316 2.58578 7.41422C 2.97632 7.80473 3.48816 7.99998 4 8.00002ZM 8 4.99998C 7.76022 4.99998 7.52045 5.09763 7.33749 5.29289L 6.675 6L 7.33749 6.70711C 7.52045 6.90237 7.76022 7 8 7C 8.25592 7.00002 8.51184 6.90237 8.70711 6.70711C 9.09764 6.31657 9.09764 5.68343 8.70711 5.29289C 8.51184 5.09763 8.25592 5 8 4.99998ZM 4 7C 4.23978 7 4.47955 6.90237 4.66251 6.70711L 5.325 6L 4.66251 5.29289C 4.47955 5.09763 4.23978 5 4 5C 3.74408 4.99998 3.48816 5.09763 3.29289 5.29289C 2.90236 5.68343 2.90236 6.31657 3.29289 6.70711C 3.48816 6.90237 3.74408 7 4 7Z"/>
</defs>
</svg>
