<svg width="1084" height="1001" viewBox="0 0 1084 1001" version="1.1" xmlns="http://www.w3.org/2000/svg" xmlns:xlink="http://www.w3.org/1999/xlink">
<title>u269B-ATOM SYMBOL</title>
<desc>Created using Figma</desc>
<g id="Canvas" transform="matrix(83.3333 0 0 83.3333 -16583.3 -4833.33)">
<g id="u269B-ATOM SYMBOL">
<path d="M 199.5 58L 211.5 58L 211.5 70L 199.5 70L 199.5 58Z" fill="#FFFFFF"/>
<g id="Union">
<use xlink:href="#path0_fill" transform="translate(200.09 58)"/>
</g>
</g>
</g>
<defs>
<path id="path0_fill" fill-rule="evenodd" d="M 2.41299 6.2824C 2.41083 6.18881 2.40973 6.09467 2.40973 6C 2.40973 5.90534 2.41083 5.81119 2.41299 5.71761C 2.31113 5.81168 2.21387 5.90592 2.12146 6.00001C 2.21387 6.09409 2.31113 6.18832 2.41299 6.2824ZM 2.52667 7.66452C 2.14584 7.36485 1.80095 7.05232 1.49699 6.7345C 1.00237 7.4268 0.82663 8.06183 1.07962 8.5C 1.3326 8.93818 1.9704 9.10349 2.81726 9.02129C 2.694 8.59914 2.59578 8.14417 2.52667 7.66452ZM 3.76559 8.84772C 3.73032 8.72066 3.69733 8.5893 3.66679 8.45404C 3.74677 8.50272 3.82774 8.55074 3.90973 8.59808C 3.99171 8.64541 4.07379 8.69153 4.15593 8.73645C 4.02351 8.77763 3.89328 8.81474 3.76559 8.84772ZM 3.14191 9.92799C 1.7677 10.0862 0.666473 9.7844 0.213593 9C -0.239288 8.2156 0.0499573 7.111 0.8741 6.00002C 0.049942 4.88902 -0.239304 3.7844 0.213577 3C 0.666458 2.2156 1.7677 1.91378 3.14191 2.07202C 3.69197 0.802792 4.50397 0 5.40973 0C 6.31549 0 7.12749 0.802795 7.67755 2.07202C 9.05177 1.91378 10.153 2.21559 10.6059 3C 11.0588 3.7844 10.7695 4.88902 9.94537 6.00001C 10.7695 7.11099 11.0588 8.2156 10.6059 9C 10.153 9.7844 9.05176 10.0862 7.67755 9.92798C 7.12749 11.1972 6.31549 12 5.40973 12C 4.50397 12 3.69197 11.1972 3.14191 9.92799ZM 6.73001 9.75578C 6.37778 10.5303 5.9157 11 5.40973 11C 4.90376 11 4.44168 10.5303 4.08945 9.75579C 4.51666 9.65147 4.95979 9.50903 5.40973 9.32906C 5.85966 9.50903 6.3028 9.65146 6.73001 9.75578ZM 8.0022 9.02129C 8.84906 9.10349 9.48688 8.93818 9.73985 8.5C 9.99284 8.06183 9.81711 7.4268 9.32248 6.7345C 9.01851 7.05231 8.67361 7.36485 8.29279 7.66453C 8.22368 8.14417 8.12546 8.59914 8.0022 9.02129ZM 7.15266 8.45406C 7.12213 8.58932 7.08914 8.72066 7.05386 8.84772C 6.92618 8.81474 6.79594 8.77763 6.66353 8.73645C 6.74567 8.69153 6.82776 8.64541 6.90974 8.59808C 6.99171 8.55075 7.07271 8.50272 7.15266 8.45406ZM 7.35887 7.12534C 7.06227 7.33501 6.74484 7.53857 6.40974 7.73205C 6.07463 7.92552 5.73961 8.09864 5.40973 8.25067C 5.07985 8.09864 4.74484 7.92552 4.40973 7.73205C 4.07462 7.53857 3.75719 7.33501 3.46059 7.12534C 3.42731 6.76364 3.40973 6.38695 3.40973 6C 3.40973 5.61305 3.42731 5.23637 3.46059 4.87467C 3.75719 4.665 4.07463 4.46143 4.40974 4.26795C 4.74486 4.07447 5.07986 3.90136 5.40974 3.74933C 5.73962 3.90136 6.07462 4.07447 6.40973 4.26795C 6.74484 4.46142 7.06227 4.66499 7.35887 4.87466C 7.39215 5.23636 7.40973 5.61305 7.40973 6C 7.40973 6.38696 7.39215 6.76364 7.35887 7.12534ZM 8.40646 6.28242C 8.50835 6.18834 8.60561 6.0941 8.69801 6.00001C 8.60561 5.90592 8.50835 5.81168 8.40646 5.71759C 8.40863 5.81119 8.40973 5.90533 8.40973 6C 8.40973 6.09467 8.40863 6.18882 8.40646 6.28242ZM 8.29279 4.33548C 8.67361 4.63515 9.01851 4.94769 9.32248 5.26551C 9.81711 4.57321 9.99286 3.93818 9.73987 3.5C 9.48689 3.06182 8.84908 2.8965 8.0022 2.97871C 8.12546 3.40086 8.22368 3.85583 8.29279 4.33548ZM 6.73001 2.24422C 6.37778 1.46971 5.9157 1 5.40973 1C 4.90376 1 4.44168 1.4697 4.08945 2.24421C 4.51668 2.34854 4.95981 2.49097 5.40974 2.67094C 5.85968 2.49097 6.3028 2.34855 6.73001 2.24422ZM 2.81726 2.97871C 1.9704 2.8965 1.33258 3.06182 1.07961 3.5C 0.826614 3.93818 1.00237 4.57321 1.49699 5.26552C 1.80095 4.9477 2.14584 4.63516 2.52667 4.33549C 2.59578 3.85584 2.694 3.40087 2.81726 2.97871ZM 3.66679 3.54597C 3.69733 3.4107 3.73032 3.27934 3.76559 3.15227C 3.89328 3.18525 4.02353 3.22236 4.15594 3.26355C 4.07381 3.30847 3.99173 3.3546 3.90974 3.40192C 3.82776 3.44926 3.74677 3.49729 3.66679 3.54597ZM 7.05386 3.15228C 7.08914 3.27934 7.12213 3.41069 7.15266 3.54596C 7.07269 3.49728 6.99171 3.44926 6.90973 3.40192C 6.82774 3.3546 6.74567 3.30847 6.66353 3.26355C 6.79594 3.22237 6.92618 3.18525 7.05386 3.15228ZM 5.40973 7C 5.96202 7 6.40973 6.55228 6.40973 6C 6.40973 5.44772 5.96202 5 5.40973 5C 4.85744 5 4.40973 5.44772 4.40973 6C 4.40973 6.55228 4.85744 7 5.40973 7Z"/>
</defs>
</svg>
