<svg width="1000" height="1000" viewBox="0 0 1000 1000" version="1.1" xmlns="http://www.w3.org/2000/svg" xmlns:xlink="http://www.w3.org/1999/xlink" xmlns:figma="http://www.figma.com/figma/ns">
<title>u2699-GEAR</title>
<desc>Created using Figma</desc>
<g id="Canvas" transform="matrix(83.3333 0 0 83.3333 -10083.3 -13666.7)" figma:type="canvas">
<g id="u2699-GEAR" style="mix-blend-mode:normal;" figma:type="frame">
<path d="M 121 164L 133 164L 133 176L 121 176L 121 164Z" fill="#FFFFFF"/>
<g id="Subtract" style="mix-blend-mode:normal;" figma:type="vector-operation">
<use xlink:href="#path0_fill" transform="translate(121 164)" style="mix-blend-mode:normal;"/>
</g>
</g>
</g>
<defs>
<path id="path0_fill" fill-rule="evenodd" d="M 6.5 11.9795C 6.33514 11.9931 6.16837 12 6 12C 5.83163 12 5.66486 11.9931 5.5 11.9795L 5.5 10.9753C 5.39745 10.9651 5.2958 10.9518 5.19516 10.9356L 4.93518 11.9058C 4.81269 11.8839 4.69149 11.8582 4.5717 11.8289L 4.31522 11.7602C 4.19833 11.7261 4.08292 11.6885 3.9691 11.6476L 4.22907 10.6773C 4.1329 10.6409 4.03815 10.6016 3.94492 10.5595L 3.44274 11.4293C 3.3263 11.3744 3.21191 11.3158 3.09972 11.2537L 2.90998 11.1442C 2.79654 11.0759 2.68555 11.004 2.57716 10.9285L 3.07933 10.0587C 2.99615 9.99878 2.91487 9.93633 2.83563 9.87148L 2.12558 10.5815C 1.99963 10.4749 1.87813 10.3632 1.7614 10.2467L 1.75333 10.2386C 1.63682 10.1219 1.52509 10.0004 1.41847 9.87442L 2.12852 9.16437C 2.06368 9.08513 2.00122 9.00386 1.94125 8.92067L 1.07146 9.42285C 0.99604 9.31447 0.92411 9.20346 0.85582 9.09003L 0.746277 8.90028C 0.684212 8.7881 0.625633 8.67371 0.570694 8.55727L 1.44051 8.05507C 1.39842 7.96184 1.35911 7.8671 1.32268 7.77094L 0.352432 8.03091C 0.311523 7.91718 0.273949 7.80182 0.239838 7.68501L 0.17099 7.42805C 0.141762 7.30835 0.116127 7.18723 0.0942001 7.06482L 1.06444 6.80486C 1.04815 6.70421 1.03487 6.60255 1.02469 6.5L 0.0205383 6.5C 0.00693512 6.33513 0 6.16838 0 6C 0 5.83162 0.00693512 5.66487 0.0205383 5.5L 1.02469 5.5C 1.03487 5.39745 1.04815 5.29579 1.06444 5.19516L 0.0942001 4.9352C 0.116112 4.81287 0.141724 4.69182 0.170929 4.57217L 0.239922 4.3147C 0.27401 4.19798 0.311554 4.08276 0.352425 3.96912L 1.32267 4.2291C 1.3591 4.13292 1.39841 4.03816 1.44051 3.94493L 0.570694 3.44273C 0.625633 3.32629 0.684212 3.2119 0.746277 3.09972L 0.85582 2.90997C 0.92411 2.79654 0.99604 2.68553 1.07146 2.57715L 1.94125 3.07933C 2.00122 2.99614 2.06368 2.91487 2.12852 2.83563L 1.41847 2.12558C 1.52509 1.99962 1.63682 1.87813 1.75333 1.7614L 1.7614 1.75333C 1.87813 1.63683 1.99963 1.5251 2.12558 1.41847L 2.83563 2.12852C 2.91488 2.06367 2.99615 2.00122 3.07934 1.94125L 2.57716 1.07146C 2.68552 0.996063 2.79647 0.924149 2.90987 0.855881L 3.09978 0.746231C 3.21195 0.684174 3.32632 0.625626 3.44274 0.570694L 3.94492 1.44051C 4.03815 1.39842 4.1329 1.35912 4.22907 1.32268L 3.96909 0.352432C 4.0827 0.311569 4.19791 0.274048 4.31458 0.23996L 4.57234 0.170883C 4.69193 0.141693 4.81291 0.116104 4.93518 0.0942078L 5.19515 1.06444C 5.29579 1.04816 5.39744 1.03487 5.5 1.02469L 5.5 0.0205383C 5.66486 0.00694275 5.83163 0 6 0C 6.16837 0 6.33514 0.00694275 6.5 0.0205383L 6.5 1.02469C 6.60255 1.03487 6.7042 1.04816 6.80484 1.06444L 7.06482 0.0941925C 7.18706 0.116089 7.30801 0.141693 7.42757 0.170868L 7.6855 0.239975C 7.80214 0.274048 7.91731 0.311584 8.0309 0.352432L 7.77092 1.32268C 7.8671 1.35912 7.96185 1.39842 8.05508 1.44051L 8.55727 0.570694C 8.67371 0.625641 8.7881 0.684204 8.90028 0.746277L 9.09003 0.85582C 9.20346 0.924103 9.31447 0.996033 9.42285 1.07146L 8.92067 1.94125C 9.00386 2.00122 9.08513 2.06367 9.16437 2.12852L 9.87442 1.41847C 10.0004 1.5251 10.1219 1.63683 10.2386 1.75333L 10.2467 1.7614C 10.3632 1.87813 10.4749 1.99962 10.5815 2.12558L 9.87148 2.83563C 9.93633 2.91487 9.99878 2.99614 10.0587 3.07933L 10.9285 2.57715C 11.004 2.68553 11.0759 2.79654 11.1442 2.90997L 11.2537 3.09972C 11.3158 3.2119 11.3744 3.32629 11.4293 3.44273L 10.5595 3.94493C 10.6016 4.03816 10.6409 4.13292 10.6773 4.22908L 11.6476 3.9691C 11.6884 4.08269 11.726 4.19786 11.76 4.3145L 11.8291 4.57243C 11.8583 4.69199 11.8839 4.81294 11.9058 4.93518L 10.9356 5.19516C 10.9518 5.29579 10.9651 5.39745 10.9753 5.5L 11.9795 5.5C 11.9931 5.66487 12 5.83162 12 6C 12 6.16838 11.9931 6.33513 11.9795 6.5L 10.9753 6.5C 10.9651 6.60255 10.9518 6.70421 10.9356 6.80486L 11.9058 7.06483C 11.8839 7.18713 11.8583 7.30814 11.8291 7.42773L 11.7601 7.68533C 11.726 7.80203 11.6884 7.91727 11.6476 8.03091L 10.6773 7.77094C 10.6409 7.8671 10.6016 7.96184 10.5595 8.05507L 11.4293 8.55727C 11.3744 8.67371 11.3158 8.7881 11.2537 8.90028L 11.1442 9.09003C 11.0759 9.20346 11.004 9.31447 10.9285 9.42285L 10.0587 8.92067C 9.99878 9.00386 9.93633 9.08513 9.87148 9.16437L 10.5815 9.87442C 10.4749 10.0004 10.3632 10.1219 10.2467 10.2386L 10.2386 10.2467C 10.1219 10.3632 10.0004 10.4749 9.87442 10.5815L 9.16437 9.87148C 9.08513 9.93633 9.00386 9.99878 8.92067 10.0587L 9.42285 10.9285C 9.31447 11.004 9.20346 11.0759 9.09003 11.1442L 8.90028 11.2537C 8.7881 11.3158 8.67371 11.3744 8.55727 11.4293L 8.05508 10.5595C 7.96185 10.6016 7.8671 10.6409 7.77092 10.6773L 8.0309 11.6476C 7.91711 11.6885 7.80173 11.7261 7.68488 11.7602L 7.42821 11.829C 7.30844 11.8582 7.18727 11.8839 7.0648 11.9058L 6.80483 10.9356C 6.70419 10.9518 6.60255 10.9651 6.5 10.9753L 6.5 11.9795ZM 6 10C 8.20914 10 10 8.20914 10 6C 10 3.79086 8.20914 2 6 2C 3.79086 2 2 3.79086 2 6C 2 8.20914 3.79086 10 6 10Z"/>
</defs>
</svg>
