<svg width="1001" height="1001" viewBox="0 0 1001 1001" version="1.1" xmlns="http://www.w3.org/2000/svg" xmlns:xlink="http://www.w3.org/1999/xlink">
<title>u29B6-CIRCLED VERTICAL BAR</title>
<desc>Created using Figma</desc>
<g id="Canvas" transform="matrix(83.3333 0 0 83.3333 -16250 -18583.3)">
<g id="u29B6-CIRCLED VERTICAL BAR">
<path d="M 195 223L 207 223L 207 235L 195 235L 195 223Z" fill="#FFFFFF"/>
<g id="Union">
<use xlink:href="#path0_fill" transform="translate(195 223)"/>
</g>
<g id="Union">
<use xlink:href="#path1_fill" transform="translate(200.5 225)"/>
</g>
</g>
</g>
<defs>
<path id="path0_fill" fill-rule="evenodd" d="M 6 12C 9.31371 12 12 9.31371 12 6C 12 2.68629 9.31371 0 6 0C 2.68629 0 0 2.68629 0 6C 0 9.31371 2.68629 12 6 12ZM 6 11C 8.76143 11 11 8.76143 11 6C 11 3.23857 8.76143 1 6 1C 3.23857 1 1 3.23857 1 6C 1 8.76143 3.23857 11 6 11Z"/>
<path id="path1_fill" fill-rule="evenodd" d="M 0 8L 0 0L 1 0L 1 8L 0 8Z"/>
</defs>
</svg>
