<svg width="1167" height="1167" viewBox="0 0 1167 1167" version="1.1" xmlns="http://www.w3.org/2000/svg" xmlns:xlink="http://www.w3.org/1999/xlink">
<title>u29BB-CIRCLE WITH SUPERIMPOSED X</title>
<desc>Created using Figma</desc>
<g id="Canvas" transform="matrix(83.3333 0 0 83.3333 -18333.3 -19666.7)">
<g id="u29BB-CIRCLE WITH SUPERIMPOSED X">
<path d="M 221 237L 233 237L 233 249L 221 249L 221 237Z" fill="#FFFFFF"/>
<g id="Union">
<use xlink:href="#path0_fill" transform="translate(220.99 236.99)"/>
</g>
</g>
</g>
<defs>
<path id="path0_fill" fill-rule="evenodd" d="M 11.3137 0L 12.0208 0.707108L 10.5919 2.13599C 11.4768 3.18134 12.0104 4.53355 12.0104 6.01041C 12.0104 7.48726 11.4768 8.83948 10.5919 9.88483L 12.0208 11.3137L 11.3137 12.0208L 9.88483 10.5919C 8.83949 11.4768 7.48726 12.0104 6.01041 12.0104C 4.53355 12.0104 3.18132 11.4768 2.13599 10.5919L 0.707108 12.0208L 0 11.3137L 1.42888 9.88483C 0.543991 8.83949 0.0104065 7.48726 0.0104065 6.01041C 0.0104065 4.53355 0.543991 3.18132 1.42888 2.13599L 0 0.707108L 0.707108 0L 2.13599 1.42888C 3.18132 0.543991 4.53355 0.0104065 6.01041 0.0104065C 7.48726 0.0104065 8.83949 0.543991 9.88483 1.42888L 11.3137 0ZM 9.17477 2.13893C 8.31284 1.43359 7.21104 1.01041 6.01041 1.01041C 4.80977 1.01041 3.70798 1.43359 2.84604 2.13893L 6.01041 5.3033L 9.17477 2.13893ZM 2.13893 2.84604C 1.43359 3.70798 1.01041 4.80977 1.01041 6.01041C 1.01041 7.21104 1.43359 8.31284 2.13893 9.17477L 5.3033 6.01041L 2.13893 2.84604ZM 2.84604 9.88188C 3.70798 10.5872 4.80977 11.0104 6.01041 11.0104C 7.21104 11.0104 8.31284 10.5872 9.17477 9.88188L 6.01041 6.71751L 2.84604 9.88188ZM 9.88188 9.17477C 10.5872 8.31284 11.0104 7.21104 11.0104 6.01041C 11.0104 4.80977 10.5872 3.70798 9.88188 2.84604L 6.71751 6.01041L 9.88188 9.17477Z"/>
</defs>
</svg>
