<svg width="1001" height="1001" viewBox="0 0 1001 1001" version="1.1" xmlns="http://www.w3.org/2000/svg" xmlns:xlink="http://www.w3.org/1999/xlink">
<title>u29BE-CIRCLED WHITE BULLET</title>
<desc>Created using Figma</desc>
<g id="Canvas" transform="matrix(83.3333 0 0 83.3333 -14000 -18583.3)">
<g id="u29BE-CIRCLED WHITE BULLET">
<path d="M 168 223L 180 223L 180 235L 168 235L 168 223Z" fill="#FFFFFF"/>
<g id="Union">
<use xlink:href="#path0_fill" transform="translate(168 223)"/>
</g>
</g>
</g>
<defs>
<path id="path0_fill" fill-rule="evenodd" d="M 12 6C 12 9.31371 9.31371 12 6 12C 2.68629 12 0 9.31371 0 6C 0 2.68629 2.68629 0 6 0C 9.31371 0 12 2.68629 12 6ZM 11 6C 11 8.76143 8.76143 11 6 11C 3.23857 11 1 8.76143 1 6C 1 3.23857 3.23857 1 6 1C 8.76143 1 11 3.23857 11 6ZM 8 6C 8 7.10457 7.10457 8 6 8C 4.89543 8 4 7.10457 4 6C 4 4.89543 4.89543 4 6 4C 7.10457 4 8 4.89543 8 6ZM 7 6C 7 6.55229 6.55229 7 6 7C 5.44771 7 5 6.55229 5 6C 5 5.44771 5.44771 5 6 5C 6.55229 5 7 5.44771 7 6Z"/>
</defs>
</svg>
