<svg width="1251" height="1001" viewBox="0 0 1251 1001" version="1.1" xmlns="http://www.w3.org/2000/svg" xmlns:xlink="http://www.w3.org/1999/xlink">
<title>u29C2-CIRCLE WITH SMALL CIRCLE TO THE RIGHT</title>
<desc>Created using Figma</desc>
<g id="Canvas" transform="matrix(83.3333 0 0 83.3333 -14000 -19750)">
<g id="u29C2-CIRCLE WITH SMALL CIRCLE TO THE RIGHT">
<path d="M 168 237L 183 237L 183 249L 168 249L 168 237Z" fill="#FFFFFF"/>
<g id="Union">
<use xlink:href="#path0_fill" transform="translate(168 237)"/>
</g>
</g>
</g>
<defs>
<path id="path0_fill" fill-rule="evenodd" d="M 11.787 7.59029C 11.0901 10.1322 8.76315 12 6 12C 2.68628 12 0 9.31371 0 6C 0 2.68629 2.68628 0 6 0C 8.76315 0 11.0901 1.86781 11.787 4.40971C 12.1235 4.15268 12.5439 4 13 4C 14.1046 4 15 4.89543 15 6C 15 7.10457 14.1046 8 13 8C 12.5439 8 12.1235 7.84732 11.787 7.59029ZM 11 6C 11 8.76143 8.76141 11 6 11C 3.23859 11 1 8.76143 1 6C 1 3.23857 3.23859 1 6 1C 8.76141 1 11 3.23857 11 6ZM 12 6C 12 6.55229 12.4477 7 13 7C 13.5523 7 14 6.55229 14 6C 14 5.44771 13.5523 5 13 5C 12.4477 5 12 5.44771 12 6Z"/>
</defs>
</svg>
