<svg width="1001" height="1001" viewBox="0 0 1001 1001" version="1.1" xmlns="http://www.w3.org/2000/svg" xmlns:xlink="http://www.w3.org/1999/xlink">
<title>u29C9-TWO JOINED SQUARES</title>
<desc>Created using Figma</desc>
<g id="Canvas" transform="matrix(83.3333 0 0 83.3333 -21416.7 -3000)">
<g id="u29C9-TWO JOINED SQUARES">
<path d="M 257 36L 269 36L 269 48L 257 48L 257 36Z" fill="#FFFFFF"/>
<g id="Union">
<use xlink:href="#path0_fill" transform="translate(257 36)"/>
</g>
</g>
</g>
<defs>
<path id="path0_fill" fill-rule="evenodd" d="M 0 0L 10 0L 10 2L 12 2L 12 12L 2 12L 2 10L 0 10L 0 0ZM 3 10L 3 11L 11 11L 11 3L 10 3L 10 10L 3 10ZM 9 3L 9 9L 3 9L 3 3L 9 3ZM 9 2L 2 2L 2 9L 1 9L 1 1L 9 1L 9 2Z"/>
</defs>
</svg>
