<svg width="1001" height="1001" viewBox="0 0 1001 1001" version="1.1" xmlns="http://www.w3.org/2000/svg" xmlns:xlink="http://www.w3.org/1999/xlink">
<title>u29C5-SQUARED FALLING DIAGONAL SLASH</title>
<desc>Created using Figma</desc>
<g id="Canvas" transform="matrix(83.3333 0 0 83.3333 -22500 -4250)">
<g id="u29C5-SQUARED FALLING DIAGONAL SLASH">
<path d="M 270 51L 282 51L 282 63L 270 63L 270 51Z" fill="#FFFFFF"/>
<g id="Union">
<use xlink:href="#path0_fill" transform="translate(270 51)"/>
</g>
<g id="Intersect">
<use xlink:href="#path1_fill" transform="matrix(-1.83697e-16 -1 1 -1.83697e-16 272 61)"/>
</g>
</g>
</g>
<defs>
<path id="path0_fill" fill-rule="evenodd" d="M 12 0L 0 0L 0 12L 12 12L 12 0ZM 11 1L 1 1L 1 11L 11 11L 11 1Z"/>
<path id="path1_fill" fill-rule="evenodd" d="M 7.29291 0L 8 0L 8 0.7071L 0.707092 8L 0 8L 0 7.2929L 7.29291 0Z"/>
</defs>
</svg>
