<svg width="1001" height="1001" viewBox="0 0 1001 1001" version="1.1" xmlns="http://www.w3.org/2000/svg" xmlns:xlink="http://www.w3.org/1999/xlink">
<title>u29C8-SQUARED SQUARE</title>
<desc>Created using Figma</desc>
<g id="Canvas" transform="matrix(83.3333 0 0 83.3333 -18416.7 416.667)">
<g id="u29C8-SQUARED SQUARE">
<path d="M 221 -5L 233 -5L 233 7L 221 7L 221 -5Z" fill="#FFFFFF"/>
<g id="Union">
<use xlink:href="#path0_fill" transform="translate(221 -5)"/>
</g>
<g id="Union">
<use xlink:href="#path1_fill" transform="translate(221 -5)"/>
</g>
</g>
</g>
<defs>
<path id="path0_fill" fill-rule="evenodd" d="M 12 0L 0 0L 0 12L 12 12L 12 0ZM 11 1L 1 1L 1 11L 11 11L 11 1ZM 10 2L 2 2L 2 10L 10 10L 10 2ZM 9 3L 3 3L 3 9L 9 9L 9 3ZM 8 4L 4 4L 4 8L 8 8L 8 4Z"/>
<path id="path1_fill" fill-rule="evenodd" d="M 0 0L 12 0L 12 12L 0 12L 0 0ZM 1 1L 11 1L 11 11L 1 11L 1 1ZM 2 2L 10 2L 10 10L 2 10L 2 2ZM 3 3L 9 3L 9 9L 3 9L 3 3Z"/>
</defs>
</svg>
