<svg width="1001" height="1001" viewBox="0 0 1001 1001" version="1.1" xmlns="http://www.w3.org/2000/svg" xmlns:xlink="http://www.w3.org/1999/xlink">
<title>u29C6-SQUARED ASTERISK</title>
<desc>Created using Figma</desc>
<g id="Canvas" transform="matrix(83.3333 0 0 83.3333 -20166.7 -3000)">
<g id="u29C6-SQUARED ASTERISK">
<path d="M 242 36L 254 36L 254 48L 242 48L 242 36Z" fill="#FFFFFF"/>
<g id="Subtract">
<use xlink:href="#path0_fill" transform="translate(242 36)"/>
</g>
<g id="Union">
<use xlink:href="#path1_fill" transform="matrix(0.707107 0.707107 -0.707107 0.707107 248 36.3431)"/>
</g>
</g>
</g>
<defs>
<path id="path0_fill" fill-rule="evenodd" d="M 0 0L 12 0L 12 12L 0 12L 0 0ZM 1 1L 11 1L 11 11L 1 11L 1 1Z"/>
<path id="path1_fill" fill-rule="evenodd" d="M 6.12132 7.53553L 5 6.41421L 5 8L 3 8L 3 6.41421L 1.87868 7.53553L 0.464465 6.12132L 1.58578 5L -2.6974e-06 5L -2.6974e-06 3L 1.58579 3L 0.464465 1.87868L 1.87868 0.464465L 3 1.58579L 3 -2.6974e-06L 5 -2.6974e-06L 5 1.58578L 6.12132 0.464465L 7.53553 1.87868L 6.4142 3.00001L 7.99999 3.00001L 8 5L 6.41421 5L 7.53553 6.12132L 6.12132 7.53553Z"/>
</defs>
</svg>
