<svg width="1001" height="1001" viewBox="0 0 1001 1001" version="1.1" xmlns="http://www.w3.org/2000/svg" xmlns:xlink="http://www.w3.org/1999/xlink">
<title>u2A00-N-ARY CIRCLED DOT OPERATOR</title>
<desc>Created using Figma</desc>
<g id="Canvas" transform="matrix(83.3333 0 0 83.3333 -12916.7 -18750)">
<g id="u2A00-N-ARY CIRCLED DOT OPERATOR">
<path d="M 155 225L 167 225L 167 237L 155 237L 155 225Z" fill="#FFFFFF"/>
<g id="Union">
<use xlink:href="#path0_fill" transform="translate(155 225)"/>
</g>
</g>
</g>
<defs>
<path id="path0_fill" fill-rule="evenodd" d="M 12 6C 12 9.31371 9.31372 12 6 12C 2.68628 12 0 9.31371 0 6C 0 2.68629 2.68628 0 6 0C 9.31372 0 12 2.68629 12 6ZM 11 6C 11 8.76143 8.76141 11 6 11C 3.23859 11 1 8.76143 1 6C 1 3.23857 3.23859 1 6 1C 8.76141 1 11 3.23857 11 6ZM 6 7C 6.55229 7 7 6.55229 7 6C 7 5.44771 6.55229 5 6 5C 5.44771 5 5 5.44771 5 6C 5 6.55229 5.44771 7 6 7Z"/>
</defs>
</svg>
