<svg width="1001" height="1001" viewBox="0 0 1001 1001" version="1.1" xmlns="http://www.w3.org/2000/svg" xmlns:xlink="http://www.w3.org/1999/xlink">
<title>u2A37-MULTIPLICATION SIGN IN DOUBLE CIRCLE</title>
<desc>Created using Figma</desc>
<g id="Canvas" transform="matrix(83.3333 0 0 83.3333 -17333.3 -19750)">
<g id="u2A37-MULTIPLICATION SIGN IN DOUBLE CIRCLE">
<path d="M 208 237L 220 237L 220 249L 208 249L 208 237Z" fill="#FFFFFF"/>
<g id="Union">
<use xlink:href="#path0_fill" transform="translate(208 237)"/>
</g>
<g id="Intersect">
<use xlink:href="#path1_fill" transform="translate(211.555 240.555)"/>
</g>
</g>
</g>
<defs>
<path id="path0_fill" fill-rule="evenodd" d="M 12 6C 12 9.31371 9.31371 12 6 12C 2.68629 12 0 9.31371 0 6C 0 2.68629 2.68629 0 6 0C 9.31371 0 12 2.68629 12 6ZM 11 6C 11 8.76143 8.76143 11 6 11C 3.23858 11 1 8.76143 1 6C 1 3.23857 3.23858 1 6 1C 8.76143 1 11 3.23857 11 6ZM 10 6C 10 8.20914 8.20914 10 6 10C 3.79086 10 2 8.20914 2 6C 2 3.79086 3.79086 2 6 2C 8.20914 2 10 3.79086 10 6ZM 9 6C 9 7.65685 7.65686 9 6 9C 4.34314 9 3 7.65685 3 6C 3 4.34315 4.34314 3 6 3C 7.65686 3 9 4.34315 9 6Z"/>
<path id="path1_fill" fill-rule="evenodd" d="M 0.707108 0L 2.44537 1.73827L 4.18364 0C 4.45689 0.194595 4.69615 0.433846 4.89075 0.707108L 3.15248 2.44538L 4.89075 4.18365C 4.69615 4.45691 4.45689 4.69616 4.18364 4.89075L 2.44537 3.15248L 0.707108 4.89075C 0.433846 4.69616 0.194595 4.45691 0 4.18365L 1.73827 2.44538L 0 0.707108C 0.194595 0.433846 0.433846 0.194595 0.707108 0Z"/>
</defs>
</svg>
