<svg width="1001" height="1001" viewBox="0 0 1001 1001" version="1.1" xmlns="http://www.w3.org/2000/svg" xmlns:xlink="http://www.w3.org/1999/xlink">
<title>u2A37-MULTIPLICATION SIGN IN DOUBLE CIRCLE</title>
<desc>Created using Figma</desc>
<g id="Canvas" transform="matrix(83.3333 0 0 83.3333 -17333.3 -19750)">
<g id="u2A37-MULTIPLICATION SIGN IN DOUBLE CIRCLE">
<path d="M 208 237L 220 237L 220 249L 208 249L 208 237Z" fill="#FFFFFF"/>
<g id="Union">
<use xlink:href="#path0_fill" transform="translate(208 237)"/>
</g>
</g>
</g>
<defs>
<path id="path0_fill" fill-rule="evenodd" d="M 6 12C 9.31371 12 12 9.31371 12 6C 12 2.68629 9.31371 0 6 0C 2.68629 0 0 2.68629 0 6C 0 9.31371 2.68629 12 6 12ZM 6 11C 8.76143 11 11 8.76143 11 6C 11 3.23857 8.76143 1 6 1C 3.23859 1 1 3.23857 1 6C 1 8.76143 3.23859 11 6 11ZM 6 10C 8.20914 10 10 8.20914 10 6C 10 3.79086 8.20914 2 6 2C 3.79086 2 2 3.79086 2 6C 2 8.20914 3.79086 10 6 10ZM 8.44537 7.73828C 8.7946 7.24786 9 6.64792 9 6C 9 5.35208 8.7946 4.75214 8.44537 4.26173L 6.70711 6L 8.44537 7.73828ZM 7.73827 8.44537L 6 6.70711L 4.26173 8.44537C 4.75214 8.7946 5.35208 9 6 9C 6.64792 9 7.24786 8.7946 7.73827 8.44537ZM 3.55463 7.73828L 5.29289 6L 3.55463 4.26173C 3.2054 4.75214 3 5.35208 3 6C 3 6.64792 3.2054 7.24786 3.55463 7.73828ZM 4.26173 3.55463L 6 5.29291L 7.73827 3.55463C 7.24786 3.2054 6.64792 3 6 3C 5.35208 3 4.75214 3.2054 4.26173 3.55463Z"/>
</defs>
</svg>
