<svg width="600" height="600" viewBox="0 0 600 600" version="1.1" xmlns="http://www.w3.org/2000/svg" xmlns:xlink="http://www.w3.org/1999/xlink" xmlns:figma="http://www.figma.com/figma/ns">
<title>u2B1A-DOTTED SQUARE</title>
<desc>Created using Figma</desc>
<g id="Canvas" transform="matrix(50 0 0 50 -7750 -5450)" figma:type="canvas">
<g id="u2B1A-DOTTED SQUARE" style="mix-blend-mode:normal;" figma:type="frame">
<path d="M 155 109L 167 109L 167 121L 155 121L 155 109Z" fill="#FFFFFF"/>
<g id="Subtract" style="mix-blend-mode:normal;" figma:type="vector-operation">
<use xlink:href="#path0_fill" transform="translate(155 109)" style="mix-blend-mode:normal;"/>
</g>
</g>
</g>
<defs>
<path id="path0_fill" fill-rule="evenodd" d="M 10.5 0L 12 0L 12 1.5L 11 1.5L 11 1L 10.5 1L 10.5 0ZM 9.5 0L 8.5 0L 8.5 1L 9.5 1L 9.5 0ZM 7.5 1L 7.5 0L 6.5 0L 6.5 1L 7.5 1ZM 5.5 1L 5.5 0L 4.5 0L 4.5 1L 5.5 1ZM 3.5 1L 3.5 0L 2.5 0L 2.5 1L 3.5 1ZM 1.5 1L 1.5 0L 0 0L 0 1.5L 1 1.5L 1 1L 1.5 1ZM 1 2.5L 0 2.5L 0 3.5L 1 3.5L 1 2.5ZM 1 4.5L 0 4.5L 0 5.5L 1 5.5L 1 4.5ZM 1 6.5L 0 6.5L 0 7.5L 1 7.5L 1 6.5ZM 1 8.5L 0 8.5L 0 9.5L 1 9.5L 1 8.5ZM 1 10.5L 0 10.5L 0 12L 1.5 12L 1.5 11L 1 11L 1 10.5ZM 2.5 11L 2.5 12L 3.5 12L 3.5 11L 2.5 11ZM 4.5 11L 4.5 12L 5.5 12L 5.5 11L 4.5 11ZM 6.5 11L 6.5 12L 7.5 12L 7.5 11L 6.5 11ZM 8.5 11L 8.5 12L 9.5 12L 9.5 11L 8.5 11ZM 10.5 11L 10.5 12L 12 12L 12 10.5L 11 10.5L 11 11L 10.5 11ZM 11 9.5L 12 9.5L 12 8.5L 11 8.5L 11 9.5ZM 11 7.5L 12 7.5L 12 6.5L 11 6.5L 11 7.5ZM 11 5.5L 12 5.5L 12 4.5L 11 4.5L 11 5.5ZM 11 3.5L 12 3.5L 12 2.5L 11 2.5L 11 3.5Z"/>
</defs>
</svg>
