<svg width="501" height="1001" viewBox="0 0 501 1001" version="1.1" xmlns="http://www.w3.org/2000/svg" xmlns:xlink="http://www.w3.org/1999/xlink">
<title>u2B2F-WHITE VERTICAL ELLIPSE</title>
<desc>Created using Figma</desc>
<g id="Canvas" transform="matrix(83.3333 0 0 83.3333 -15333.3 -4833.33)">
<g id="u2B2F-WHITE VERTICAL ELLIPSE">
<path d="M 184 58L 190 58L 190 70L 184 70L 184 58Z" fill="#FFFFFF"/>
<g id="Subtract">
<use xlink:href="#path0_fill" transform="matrix(6.12323e-17 1 -1 6.12323e-17 190 58)"/>
</g>
</g>
</g>
<defs>
<path id="path0_fill" fill-rule="evenodd" d="M 6 6C 9.31371 6 12 4.65685 12 3C 12 1.34315 9.31371 0 6 0C 2.68629 0 0 1.34315 0 3C 0 4.65685 2.68629 6 6 6ZM 6 5C 8.76143 5 11 4.10457 11 3C 11 1.89543 8.76143 1 6 1C 3.23857 1 1 1.89543 1 3C 1 4.10457 3.23857 5 6 5Z"/>
</defs>
</svg>
