<svg width="1000" height="1000" viewBox="0 0 1000 1000" version="1.1" xmlns="http://www.w3.org/2000/svg" xmlns:xlink="http://www.w3.org/1999/xlink" xmlns:figma="http://www.figma.com/figma/ns">
<title>u2BBD-BALLOT BOX WITH LIGHT X</title>
<desc>Created using Figma</desc>
<g id="Canvas" transform="matrix(83.3333 0 0 83.3333 -10500 -1083.33)" figma:type="canvas">
<g id="u2BBD-BALLOT BOX WITH LIGHT X" style="mix-blend-mode:normal;" figma:type="frame">
<path d="M 126 13L 138 13L 138 25L 126 25L 126 13Z" fill="#FFFFFF"/>
<g id="Union" style="mix-blend-mode:normal;" figma:type="vector-operation">
<use xlink:href="#path0_fill" transform="translate(126 13)" style="mix-blend-mode:normal;"/>
</g>
</g>
</g>
<defs>
<path id="path0_fill" fill-rule="evenodd" d="M 0 0L 12 0L 12 12L 0 12L 0 0ZM 2 2L 10 2L 10 10L 2 10L 2 2ZM 9.53554 3.87868L 7.41422 6L 9.53554 8.12132L 8.12132 9.53553L 6 7.41421L 3.87868 9.53553L 2.46446 8.12132L 4.58578 6L 2.46446 3.87868L 3.87868 2.46447L 6 4.58579L 8.12132 2.46447L 9.53554 3.87868Z"/>
</defs>
</svg>
