<svg width="1001" height="1001" viewBox="0 0 1001 1001" version="1.1" xmlns="http://www.w3.org/2000/svg" xmlns:xlink="http://www.w3.org/1999/xlink">
<title>u2BBD-BALLOT BOX WITH LIGHT X</title>
<desc>Created using Figma</desc>
<g id="Canvas" transform="matrix(83.3333 0 0 83.3333 -10500 -1083.33)">
<g id="u2BBD-BALLOT BOX WITH LIGHT X">
<path d="M 126 13L 138 13L 138 25L 126 25L 126 13Z" fill="#FFFFFF"/>
<g id="Union">
<use xlink:href="#path0_fill" transform="translate(126 13)"/>
</g>
</g>
</g>
<defs>
<path id="path0_fill" fill-rule="evenodd" d="M 0 0L 12 0L 12 12L 0 12L 0 0ZM 1 1L 11 1L 11 11L 1 11L 1 1ZM 8.12132 9.53554L 6 7.41422L 3.87868 9.53554L 2.46448 8.12132L 4.58578 6.00001L 2.46446 3.87868L 3.87868 2.46447L 6 4.58579L 8.12132 2.46447L 9.53554 3.87868L 7.41422 6L 9.53554 8.12132L 8.12132 9.53554Z"/>
</defs>
</svg>
